<svg width="430" height="65" viewBox="0 0 430 65" fill="none" xmlns="http://www.w3.org/2000/svg">
<path d="M66.4 53V25H76.7C78.22 25 79.5867 25.3733 80.8 26.12C82.0133 26.8667 82.9733 27.8733 83.68 29.14C84.4 30.3933 84.76 31.7933 84.76 33.34C84.76 34.6467 84.5133 35.84 84.02 36.92C83.54 38 82.86 38.92 81.98 39.68C81.1133 40.44 80.12 40.9867 79 41.32L85.76 53H80.94L74.38 41.7H70.56V53H66.4ZM70.56 37.54H76.26C77.06 37.54 77.7867 37.34 78.44 36.94C79.1067 36.54 79.6333 36.0067 80.02 35.34C80.4067 34.6733 80.6 33.92 80.6 33.08C80.6 32.24 80.4067 31.4867 80.02 30.82C79.6333 30.14 79.1067 29.6067 78.44 29.22C77.7867 28.82 77.06 28.62 76.26 28.62H70.56V37.54ZM89.9547 53V25H107.335V29.16H94.1147V35.92H104.755V40.08H94.1147V48.84H107.335V53H89.9547ZM111.908 53V25H129.288V29.16H116.068V35.92H126.708V40.08H116.068V48.84H129.288V53H111.908ZM133.705 53L139.125 25H142.485L149.665 43.86L156.805 25H160.165L165.605 53H161.365L157.745 34.26L151.045 51.94H148.245L141.565 34.26L137.945 53H133.705ZM169.681 53V25H179.621C181.061 25 182.361 25.2933 183.521 25.88C184.695 26.4667 185.621 27.3133 186.301 28.42C186.995 29.5133 187.341 30.8267 187.341 32.36C187.341 33.1067 187.221 33.84 186.981 34.56C186.741 35.28 186.401 35.9133 185.961 36.46C185.521 37.0067 184.988 37.3933 184.361 37.62C185.215 37.8333 185.921 38.22 186.481 38.78C187.055 39.3267 187.508 39.9667 187.841 40.7C188.175 41.4333 188.408 42.1933 188.541 42.98C188.688 43.7667 188.761 44.5133 188.761 45.22C188.761 46.7133 188.401 48.0467 187.681 49.22C186.961 50.3933 185.995 51.32 184.781 52C183.581 52.6667 182.255 53 180.801 53H169.681ZM173.841 49.4H180.401C181.255 49.4 182.028 49.1867 182.721 48.76C183.428 48.3333 183.988 47.7467 184.401 47C184.815 46.24 185.021 45.3867 185.021 44.44C185.021 43.6133 184.815 42.8333 184.401 42.1C183.988 41.3533 183.428 40.7533 182.721 40.3C182.028 39.8467 181.255 39.62 180.401 39.62H173.841V49.4ZM173.841 36.08H179.181C180.275 36.08 181.215 35.7467 182.001 35.08C182.788 34.4133 183.181 33.5 183.181 32.34C183.181 31.1 182.788 30.1733 182.001 29.56C181.215 28.9333 180.275 28.62 179.181 28.62H173.841V36.08ZM205.259 53.52C203.366 53.52 201.586 53.1467 199.919 52.4C198.253 51.64 196.786 50.5933 195.519 49.26C194.253 47.9267 193.259 46.3867 192.539 44.64C191.819 42.88 191.459 41 191.459 39C191.459 37 191.819 35.1267 192.539 33.38C193.259 31.62 194.253 30.0733 195.519 28.74C196.786 27.4067 198.253 26.3667 199.919 25.62C201.586 24.86 203.366 24.48 205.259 24.48C207.166 24.48 208.953 24.86 210.619 25.62C212.286 26.3667 213.753 27.4067 215.019 28.74C216.286 30.0733 217.273 31.62 217.979 33.38C218.699 35.1267 219.059 37 219.059 39C219.059 41 218.699 42.88 217.979 44.64C217.273 46.3867 216.286 47.9267 215.019 49.26C213.753 50.5933 212.286 51.64 210.619 52.4C208.953 53.1467 207.166 53.52 205.259 53.52ZM205.259 49.36C206.593 49.36 207.839 49.0867 208.999 48.54C210.159 47.9933 211.179 47.2467 212.059 46.3C212.953 45.34 213.646 44.24 214.139 43C214.646 41.7467 214.899 40.4133 214.899 39C214.899 37.5867 214.646 36.2533 214.139 35C213.646 33.7467 212.953 32.6467 212.059 31.7C211.179 30.74 210.159 29.9933 208.999 29.46C207.839 28.9133 206.593 28.64 205.259 28.64C203.926 28.64 202.679 28.9133 201.519 29.46C200.359 30.0067 199.333 30.76 198.439 31.72C197.559 32.6667 196.866 33.7667 196.359 35.02C195.866 36.26 195.619 37.5867 195.619 39C195.619 40.4267 195.866 41.7667 196.359 43.02C196.866 44.26 197.559 45.36 198.439 46.32C199.333 47.2667 200.359 48.0133 201.519 48.56C202.679 49.0933 203.926 49.36 205.259 49.36ZM222.845 53V25H227.005V48.84H239.065V53H222.845ZM253.45 53.52C251.917 53.52 250.444 53.28 249.03 52.8C247.617 52.32 246.384 51.6333 245.33 50.74C244.277 49.8333 243.524 48.76 243.07 47.52L246.97 46.06C247.197 46.7 247.63 47.2733 248.27 47.78C248.924 48.2733 249.697 48.66 250.59 48.94C251.497 49.22 252.45 49.36 253.45 49.36C254.517 49.36 255.517 49.1867 256.45 48.84C257.397 48.4933 258.157 48.0133 258.73 47.4C259.317 46.7867 259.61 46.0667 259.61 45.24C259.61 44.3867 259.304 43.6867 258.69 43.14C258.09 42.5933 257.317 42.16 256.37 41.84C255.437 41.52 254.464 41.28 253.45 41.12C251.49 40.8 249.73 40.3333 248.17 39.72C246.624 39.1067 245.397 38.2467 244.49 37.14C243.597 36.0333 243.15 34.5933 243.15 32.82C243.15 31.1533 243.624 29.7 244.57 28.46C245.53 27.22 246.79 26.26 248.35 25.58C249.924 24.8867 251.624 24.54 253.45 24.54C254.957 24.54 256.41 24.78 257.81 25.26C259.224 25.7267 260.464 26.4133 261.53 27.32C262.61 28.2133 263.384 29.3 263.85 30.58L259.91 32C259.684 31.3467 259.25 30.78 258.61 30.3C257.97 29.8067 257.197 29.42 256.29 29.14C255.397 28.86 254.45 28.72 253.45 28.72C252.384 28.7067 251.384 28.88 250.45 29.24C249.53 29.5867 248.777 30.0667 248.19 30.68C247.604 31.2933 247.31 32.0067 247.31 32.82C247.31 33.82 247.584 34.58 248.13 35.1C248.677 35.62 249.41 36.0067 250.33 36.26C251.264 36.5 252.304 36.72 253.45 36.92C255.29 37.2133 256.99 37.7 258.55 38.38C260.124 39.06 261.384 39.9667 262.33 41.1C263.29 42.22 263.77 43.6 263.77 45.24C263.77 46.8933 263.29 48.3467 262.33 49.6C261.384 50.84 260.124 51.8067 258.55 52.5C256.99 53.18 255.29 53.52 253.45 53.52ZM280.884 53.52C278.991 53.52 277.211 53.1467 275.544 52.4C273.878 51.64 272.411 50.5933 271.144 49.26C269.878 47.9267 268.884 46.3867 268.164 44.64C267.444 42.88 267.084 41 267.084 39C267.084 37 267.444 35.1267 268.164 33.38C268.884 31.62 269.878 30.0733 271.144 28.74C272.411 27.4067 273.878 26.3667 275.544 25.62C277.211 24.86 278.991 24.48 280.884 24.48C282.791 24.48 284.578 24.86 286.244 25.62C287.911 26.3667 289.378 27.4067 290.644 28.74C291.911 30.0733 292.898 31.62 293.604 33.38C294.324 35.1267 294.684 37 294.684 39C294.684 41 294.324 42.88 293.604 44.64C292.898 46.3867 291.911 47.9267 290.644 49.26C289.378 50.5933 287.911 51.64 286.244 52.4C284.578 53.1467 282.791 53.52 280.884 53.52ZM280.884 49.36C282.218 49.36 283.464 49.0867 284.624 48.54C285.784 47.9933 286.804 47.2467 287.684 46.3C288.578 45.34 289.271 44.24 289.764 43C290.271 41.7467 290.524 40.4133 290.524 39C290.524 37.5867 290.271 36.2533 289.764 35C289.271 33.7467 288.578 32.6467 287.684 31.7C286.804 30.74 285.784 29.9933 284.624 29.46C283.464 28.9133 282.218 28.64 280.884 28.64C279.551 28.64 278.304 28.9133 277.144 29.46C275.984 30.0067 274.958 30.76 274.064 31.72C273.184 32.6667 272.491 33.7667 271.984 35.02C271.491 36.26 271.244 37.5867 271.244 39C271.244 40.4267 271.491 41.7667 271.984 43.02C272.491 44.26 273.184 45.36 274.064 46.32C274.958 47.2667 275.984 48.0133 277.144 48.56C278.304 49.0933 279.551 49.36 280.884 49.36ZM308.802 53.52C307.269 53.52 305.795 53.28 304.382 52.8C302.969 52.32 301.735 51.6333 300.682 50.74C299.629 49.8333 298.875 48.76 298.422 47.52L302.322 46.06C302.549 46.7 302.982 47.2733 303.622 47.78C304.275 48.2733 305.049 48.66 305.942 48.94C306.849 49.22 307.802 49.36 308.802 49.36C309.869 49.36 310.869 49.1867 311.802 48.84C312.749 48.4933 313.509 48.0133 314.082 47.4C314.669 46.7867 314.962 46.0667 314.962 45.24C314.962 44.3867 314.655 43.6867 314.042 43.14C313.442 42.5933 312.669 42.16 311.722 41.84C310.789 41.52 309.815 41.28 308.802 41.12C306.842 40.8 305.082 40.3333 303.522 39.72C301.975 39.1067 300.749 38.2467 299.842 37.14C298.949 36.0333 298.502 34.5933 298.502 32.82C298.502 31.1533 298.975 29.7 299.922 28.46C300.882 27.22 302.142 26.26 303.702 25.58C305.275 24.8867 306.975 24.54 308.802 24.54C310.309 24.54 311.762 24.78 313.162 25.26C314.575 25.7267 315.815 26.4133 316.882 27.32C317.962 28.2133 318.735 29.3 319.202 30.58L315.262 32C315.035 31.3467 314.602 30.78 313.962 30.3C313.322 29.8067 312.549 29.42 311.642 29.14C310.749 28.86 309.802 28.72 308.802 28.72C307.735 28.7067 306.735 28.88 305.802 29.24C304.882 29.5867 304.129 30.0667 303.542 30.68C302.955 31.2933 302.662 32.0067 302.662 32.82C302.662 33.82 302.935 34.58 303.482 35.1C304.029 35.62 304.762 36.0067 305.682 36.26C306.615 36.5 307.655 36.72 308.802 36.92C310.642 37.2133 312.342 37.7 313.902 38.38C315.475 39.06 316.735 39.9667 317.682 41.1C318.642 42.22 319.122 43.6 319.122 45.24C319.122 46.8933 318.642 48.3467 317.682 49.6C316.735 50.84 315.475 51.8067 313.902 52.5C312.342 53.18 310.642 53.52 308.802 53.52ZM330.975 25H335.835L346.015 53H341.615L339.675 47.68H327.135L325.215 53H320.795L330.975 25ZM328.675 43.52H338.135L333.395 30.52L328.675 43.52ZM349.525 53V25H353.685V48.84H365.745V53H349.525ZM379.863 53.52C377.623 53.52 375.669 52.9733 374.003 51.88C372.349 50.7867 371.063 49.32 370.143 47.48C369.236 45.6267 368.783 43.5733 368.783 41.32V25H372.943V41.32C372.943 42.7867 373.209 44.1333 373.743 45.36C374.289 46.5733 375.076 47.5467 376.103 48.28C377.143 49 378.396 49.36 379.863 49.36C381.369 49.36 382.636 49 383.663 48.28C384.689 47.5467 385.463 46.5733 385.983 45.36C386.516 44.1333 386.783 42.7867 386.783 41.32V25H390.943V41.32C390.943 43.0133 390.683 44.6 390.163 46.08C389.643 47.5467 388.896 48.84 387.923 49.96C386.949 51.08 385.783 51.9533 384.423 52.58C383.063 53.2067 381.543 53.52 379.863 53.52ZM395.384 53V25H404.644C406.578 25 408.391 25.3667 410.084 26.1C411.778 26.82 413.264 27.8267 414.544 29.12C415.824 30.4 416.824 31.8867 417.544 33.58C418.278 35.26 418.644 37.0667 418.644 39C418.644 40.9333 418.278 42.7467 417.544 44.44C416.824 46.12 415.824 47.6067 414.544 48.9C413.264 50.18 411.778 51.1867 410.084 51.92C408.391 52.64 406.578 53 404.644 53H395.384ZM399.544 48.84H404.644C406.004 48.84 407.271 48.5867 408.444 48.08C409.631 47.5733 410.678 46.8667 411.584 45.96C412.504 45.0533 413.218 44.0067 413.724 42.82C414.231 41.6333 414.484 40.36 414.484 39C414.484 37.64 414.231 36.3667 413.724 35.18C413.218 33.9933 412.504 32.9467 411.584 32.04C410.678 31.1333 409.631 30.4267 408.444 29.92C407.271 29.4133 406.004 29.16 404.644 29.16H399.544V48.84Z" fill="#B461E5"/>
<path d="M66.4 53V25H76.7C78.22 25 79.5867 25.3733 80.8 26.12C82.0133 26.8667 82.9733 27.8733 83.68 29.14C84.4 30.3933 84.76 31.7933 84.76 33.34C84.76 34.6467 84.5133 35.84 84.02 36.92C83.54 38 82.86 38.92 81.98 39.68C81.1133 40.44 80.12 40.9867 79 41.32L85.76 53H80.94L74.38 41.7H70.56V53H66.4ZM70.56 37.54H76.26C77.06 37.54 77.7867 37.34 78.44 36.94C79.1067 36.54 79.6333 36.0067 80.02 35.34C80.4067 34.6733 80.6 33.92 80.6 33.08C80.6 32.24 80.4067 31.4867 80.02 30.82C79.6333 30.14 79.1067 29.6067 78.44 29.22C77.7867 28.82 77.06 28.62 76.26 28.62H70.56V37.54ZM89.9547 53V25H107.335V29.16H94.1147V35.92H104.755V40.08H94.1147V48.84H107.335V53H89.9547ZM111.908 53V25H129.288V29.16H116.068V35.92H126.708V40.08H116.068V48.84H129.288V53H111.908ZM133.705 53L139.125 25H142.485L149.665 43.86L156.805 25H160.165L165.605 53H161.365L157.745 34.26L151.045 51.94H148.245L141.565 34.26L137.945 53H133.705ZM169.681 53V25H179.621C181.061 25 182.361 25.2933 183.521 25.88C184.695 26.4667 185.621 27.3133 186.301 28.42C186.995 29.5133 187.341 30.8267 187.341 32.36C187.341 33.1067 187.221 33.84 186.981 34.56C186.741 35.28 186.401 35.9133 185.961 36.46C185.521 37.0067 184.988 37.3933 184.361 37.62C185.215 37.8333 185.921 38.22 186.481 38.78C187.055 39.3267 187.508 39.9667 187.841 40.7C188.175 41.4333 188.408 42.1933 188.541 42.98C188.688 43.7667 188.761 44.5133 188.761 45.22C188.761 46.7133 188.401 48.0467 187.681 49.22C186.961 50.3933 185.995 51.32 184.781 52C183.581 52.6667 182.255 53 180.801 53H169.681ZM173.841 49.4H180.401C181.255 49.4 182.028 49.1867 182.721 48.76C183.428 48.3333 183.988 47.7467 184.401 47C184.815 46.24 185.021 45.3867 185.021 44.44C185.021 43.6133 184.815 42.8333 184.401 42.1C183.988 41.3533 183.428 40.7533 182.721 40.3C182.028 39.8467 181.255 39.62 180.401 39.62H173.841V49.4ZM173.841 36.08H179.181C180.275 36.08 181.215 35.7467 182.001 35.08C182.788 34.4133 183.181 33.5 183.181 32.34C183.181 31.1 182.788 30.1733 182.001 29.56C181.215 28.9333 180.275 28.62 179.181 28.62H173.841V36.08ZM205.259 53.52C203.366 53.52 201.586 53.1467 199.919 52.4C198.253 51.64 196.786 50.5933 195.519 49.26C194.253 47.9267 193.259 46.3867 192.539 44.64C191.819 42.88 191.459 41 191.459 39C191.459 37 191.819 35.1267 192.539 33.38C193.259 31.62 194.253 30.0733 195.519 28.74C196.786 27.4067 198.253 26.3667 199.919 25.62C201.586 24.86 203.366 24.48 205.259 24.48C207.166 24.48 208.953 24.86 210.619 25.62C212.286 26.3667 213.753 27.4067 215.019 28.74C216.286 30.0733 217.273 31.62 217.979 33.38C218.699 35.1267 219.059 37 219.059 39C219.059 41 218.699 42.88 217.979 44.64C217.273 46.3867 216.286 47.9267 215.019 49.26C213.753 50.5933 212.286 51.64 210.619 52.4C208.953 53.1467 207.166 53.52 205.259 53.52ZM205.259 49.36C206.593 49.36 207.839 49.0867 208.999 48.54C210.159 47.9933 211.179 47.2467 212.059 46.3C212.953 45.34 213.646 44.24 214.139 43C214.646 41.7467 214.899 40.4133 214.899 39C214.899 37.5867 214.646 36.2533 214.139 35C213.646 33.7467 212.953 32.6467 212.059 31.7C211.179 30.74 210.159 29.9933 208.999 29.46C207.839 28.9133 206.593 28.64 205.259 28.64C203.926 28.64 202.679 28.9133 201.519 29.46C200.359 30.0067 199.333 30.76 198.439 31.72C197.559 32.6667 196.866 33.7667 196.359 35.02C195.866 36.26 195.619 37.5867 195.619 39C195.619 40.4267 195.866 41.7667 196.359 43.02C196.866 44.26 197.559 45.36 198.439 46.32C199.333 47.2667 200.359 48.0133 201.519 48.56C202.679 49.0933 203.926 49.36 205.259 49.36ZM222.845 53V25H227.005V48.84H239.065V53H222.845ZM253.45 53.52C251.917 53.52 250.444 53.28 249.03 52.8C247.617 52.32 246.384 51.6333 245.33 50.74C244.277 49.8333 243.524 48.76 243.07 47.52L246.97 46.06C247.197 46.7 247.63 47.2733 248.27 47.78C248.924 48.2733 249.697 48.66 250.59 48.94C251.497 49.22 252.45 49.36 253.45 49.36C254.517 49.36 255.517 49.1867 256.45 48.84C257.397 48.4933 258.157 48.0133 258.73 47.4C259.317 46.7867 259.61 46.0667 259.61 45.24C259.61 44.3867 259.304 43.6867 258.69 43.14C258.09 42.5933 257.317 42.16 256.37 41.84C255.437 41.52 254.464 41.28 253.45 41.12C251.49 40.8 249.73 40.3333 248.17 39.72C246.624 39.1067 245.397 38.2467 244.49 37.14C243.597 36.0333 243.15 34.5933 243.15 32.82C243.15 31.1533 243.624 29.7 244.57 28.46C245.53 27.22 246.79 26.26 248.35 25.58C249.924 24.8867 251.624 24.54 253.45 24.54C254.957 24.54 256.41 24.78 257.81 25.26C259.224 25.7267 260.464 26.4133 261.53 27.32C262.61 28.2133 263.384 29.3 263.85 30.58L259.91 32C259.684 31.3467 259.25 30.78 258.61 30.3C257.97 29.8067 257.197 29.42 256.29 29.14C255.397 28.86 254.45 28.72 253.45 28.72C252.384 28.7067 251.384 28.88 250.45 29.24C249.53 29.5867 248.777 30.0667 248.19 30.68C247.604 31.2933 247.31 32.0067 247.31 32.82C247.31 33.82 247.584 34.58 248.13 35.1C248.677 35.62 249.41 36.0067 250.33 36.26C251.264 36.5 252.304 36.72 253.45 36.92C255.29 37.2133 256.99 37.7 258.55 38.38C260.124 39.06 261.384 39.9667 262.33 41.1C263.29 42.22 263.77 43.6 263.77 45.24C263.77 46.8933 263.29 48.3467 262.33 49.6C261.384 50.84 260.124 51.8067 258.55 52.5C256.99 53.18 255.29 53.52 253.45 53.52ZM280.884 53.52C278.991 53.52 277.211 53.1467 275.544 52.4C273.878 51.64 272.411 50.5933 271.144 49.26C269.878 47.9267 268.884 46.3867 268.164 44.64C267.444 42.88 267.084 41 267.084 39C267.084 37 267.444 35.1267 268.164 33.38C268.884 31.62 269.878 30.0733 271.144 28.74C272.411 27.4067 273.878 26.3667 275.544 25.62C277.211 24.86 278.991 24.48 280.884 24.48C282.791 24.48 284.578 24.86 286.244 25.62C287.911 26.3667 289.378 27.4067 290.644 28.74C291.911 30.0733 292.898 31.62 293.604 33.38C294.324 35.1267 294.684 37 294.684 39C294.684 41 294.324 42.88 293.604 44.64C292.898 46.3867 291.911 47.9267 290.644 49.26C289.378 50.5933 287.911 51.64 286.244 52.4C284.578 53.1467 282.791 53.52 280.884 53.52ZM280.884 49.36C282.218 49.36 283.464 49.0867 284.624 48.54C285.784 47.9933 286.804 47.2467 287.684 46.3C288.578 45.34 289.271 44.24 289.764 43C290.271 41.7467 290.524 40.4133 290.524 39C290.524 37.5867 290.271 36.2533 289.764 35C289.271 33.7467 288.578 32.6467 287.684 31.7C286.804 30.74 285.784 29.9933 284.624 29.46C283.464 28.9133 282.218 28.64 280.884 28.64C279.551 28.64 278.304 28.9133 277.144 29.46C275.984 30.0067 274.958 30.76 274.064 31.72C273.184 32.6667 272.491 33.7667 271.984 35.02C271.491 36.26 271.244 37.5867 271.244 39C271.244 40.4267 271.491 41.7667 271.984 43.02C272.491 44.26 273.184 45.36 274.064 46.32C274.958 47.2667 275.984 48.0133 277.144 48.56C278.304 49.0933 279.551 49.36 280.884 49.36ZM308.802 53.52C307.269 53.52 305.795 53.28 304.382 52.8C302.969 52.32 301.735 51.6333 300.682 50.74C299.629 49.8333 298.875 48.76 298.422 47.52L302.322 46.06C302.549 46.7 302.982 47.2733 303.622 47.78C304.275 48.2733 305.049 48.66 305.942 48.94C306.849 49.22 307.802 49.36 308.802 49.36C309.869 49.36 310.869 49.1867 311.802 48.84C312.749 48.4933 313.509 48.0133 314.082 47.4C314.669 46.7867 314.962 46.0667 314.962 45.24C314.962 44.3867 314.655 43.6867 314.042 43.14C313.442 42.5933 312.669 42.16 311.722 41.84C310.789 41.52 309.815 41.28 308.802 41.12C306.842 40.8 305.082 40.3333 303.522 39.72C301.975 39.1067 300.749 38.2467 299.842 37.14C298.949 36.0333 298.502 34.5933 298.502 32.82C298.502 31.1533 298.975 29.7 299.922 28.46C300.882 27.22 302.142 26.26 303.702 25.58C305.275 24.8867 306.975 24.54 308.802 24.54C310.309 24.54 311.762 24.78 313.162 25.26C314.575 25.7267 315.815 26.4133 316.882 27.32C317.962 28.2133 318.735 29.3 319.202 30.58L315.262 32C315.035 31.3467 314.602 30.78 313.962 30.3C313.322 29.8067 312.549 29.42 311.642 29.14C310.749 28.86 309.802 28.72 308.802 28.72C307.735 28.7067 306.735 28.88 305.802 29.24C304.882 29.5867 304.129 30.0667 303.542 30.68C302.955 31.2933 302.662 32.0067 302.662 32.82C302.662 33.82 302.935 34.58 303.482 35.1C304.029 35.62 304.762 36.0067 305.682 36.26C306.615 36.5 307.655 36.72 308.802 36.92C310.642 37.2133 312.342 37.7 313.902 38.38C315.475 39.06 316.735 39.9667 317.682 41.1C318.642 42.22 319.122 43.6 319.122 45.24C319.122 46.8933 318.642 48.3467 317.682 49.6C316.735 50.84 315.475 51.8067 313.902 52.5C312.342 53.18 310.642 53.52 308.802 53.52ZM330.975 25H335.835L346.015 53H341.615L339.675 47.68H327.135L325.215 53H320.795L330.975 25ZM328.675 43.52H338.135L333.395 30.52L328.675 43.52ZM349.525 53V25H353.685V48.84H365.745V53H349.525ZM379.863 53.52C377.623 53.52 375.669 52.9733 374.003 51.88C372.349 50.7867 371.063 49.32 370.143 47.48C369.236 45.6267 368.783 43.5733 368.783 41.32V25H372.943V41.32C372.943 42.7867 373.209 44.1333 373.743 45.36C374.289 46.5733 375.076 47.5467 376.103 48.28C377.143 49 378.396 49.36 379.863 49.36C381.369 49.36 382.636 49 383.663 48.28C384.689 47.5467 385.463 46.5733 385.983 45.36C386.516 44.1333 386.783 42.7867 386.783 41.32V25H390.943V41.32C390.943 43.0133 390.683 44.6 390.163 46.08C389.643 47.5467 388.896 48.84 387.923 49.96C386.949 51.08 385.783 51.9533 384.423 52.58C383.063 53.2067 381.543 53.52 379.863 53.52ZM395.384 53V25H404.644C406.578 25 408.391 25.3667 410.084 26.1C411.778 26.82 413.264 27.8267 414.544 29.12C415.824 30.4 416.824 31.8867 417.544 33.58C418.278 35.26 418.644 37.0667 418.644 39C418.644 40.9333 418.278 42.7467 417.544 44.44C416.824 46.12 415.824 47.6067 414.544 48.9C413.264 50.18 411.778 51.1867 410.084 51.92C408.391 52.64 406.578 53 404.644 53H395.384ZM399.544 48.84H404.644C406.004 48.84 407.271 48.5867 408.444 48.08C409.631 47.5733 410.678 46.8667 411.584 45.96C412.504 45.0533 413.218 44.0067 413.724 42.82C414.231 41.6333 414.484 40.36 414.484 39C414.484 37.64 414.231 36.3667 413.724 35.18C413.218 33.9933 412.504 32.9467 411.584 32.04C410.678 31.1333 409.631 30.4267 408.444 29.92C407.271 29.4133 406.004 29.16 404.644 29.16H399.544V48.84Z" fill="#B461E5"/>
<path d="M66.4 53V25H76.7C78.22 25 79.5867 25.3733 80.8 26.12C82.0133 26.8667 82.9733 27.8733 83.68 29.14C84.4 30.3933 84.76 31.7933 84.76 33.34C84.76 34.6467 84.5133 35.84 84.02 36.92C83.54 38 82.86 38.92 81.98 39.68C81.1133 40.44 80.12 40.9867 79 41.32L85.76 53H80.94L74.38 41.7H70.56V53H66.4ZM70.56 37.54H76.26C77.06 37.54 77.7867 37.34 78.44 36.94C79.1067 36.54 79.6333 36.0067 80.02 35.34C80.4067 34.6733 80.6 33.92 80.6 33.08C80.6 32.24 80.4067 31.4867 80.02 30.82C79.6333 30.14 79.1067 29.6067 78.44 29.22C77.7867 28.82 77.06 28.62 76.26 28.62H70.56V37.54ZM89.9547 53V25H107.335V29.16H94.1147V35.92H104.755V40.08H94.1147V48.84H107.335V53H89.9547ZM111.908 53V25H129.288V29.16H116.068V35.92H126.708V40.08H116.068V48.84H129.288V53H111.908ZM133.705 53L139.125 25H142.485L149.665 43.86L156.805 25H160.165L165.605 53H161.365L157.745 34.26L151.045 51.94H148.245L141.565 34.26L137.945 53H133.705ZM169.681 53V25H179.621C181.061 25 182.361 25.2933 183.521 25.88C184.695 26.4667 185.621 27.3133 186.301 28.42C186.995 29.5133 187.341 30.8267 187.341 32.36C187.341 33.1067 187.221 33.84 186.981 34.56C186.741 35.28 186.401 35.9133 185.961 36.46C185.521 37.0067 184.988 37.3933 184.361 37.62C185.215 37.8333 185.921 38.22 186.481 38.78C187.055 39.3267 187.508 39.9667 187.841 40.7C188.175 41.4333 188.408 42.1933 188.541 42.98C188.688 43.7667 188.761 44.5133 188.761 45.22C188.761 46.7133 188.401 48.0467 187.681 49.22C186.961 50.3933 185.995 51.32 184.781 52C183.581 52.6667 182.255 53 180.801 53H169.681ZM173.841 49.4H180.401C181.255 49.4 182.028 49.1867 182.721 48.76C183.428 48.3333 183.988 47.7467 184.401 47C184.815 46.24 185.021 45.3867 185.021 44.44C185.021 43.6133 184.815 42.8333 184.401 42.1C183.988 41.3533 183.428 40.7533 182.721 40.3C182.028 39.8467 181.255 39.62 180.401 39.62H173.841V49.4ZM173.841 36.08H179.181C180.275 36.08 181.215 35.7467 182.001 35.08C182.788 34.4133 183.181 33.5 183.181 32.34C183.181 31.1 182.788 30.1733 182.001 29.56C181.215 28.9333 180.275 28.62 179.181 28.62H173.841V36.08ZM205.259 53.52C203.366 53.52 201.586 53.1467 199.919 52.4C198.253 51.64 196.786 50.5933 195.519 49.26C194.253 47.9267 193.259 46.3867 192.539 44.64C191.819 42.88 191.459 41 191.459 39C191.459 37 191.819 35.1267 192.539 33.38C193.259 31.62 194.253 30.0733 195.519 28.74C196.786 27.4067 198.253 26.3667 199.919 25.62C201.586 24.86 203.366 24.48 205.259 24.48C207.166 24.48 208.953 24.86 210.619 25.62C212.286 26.3667 213.753 27.4067 215.019 28.74C216.286 30.0733 217.273 31.62 217.979 33.38C218.699 35.1267 219.059 37 219.059 39C219.059 41 218.699 42.88 217.979 44.64C217.273 46.3867 216.286 47.9267 215.019 49.26C213.753 50.5933 212.286 51.64 210.619 52.4C208.953 53.1467 207.166 53.52 205.259 53.52ZM205.259 49.36C206.593 49.36 207.839 49.0867 208.999 48.54C210.159 47.9933 211.179 47.2467 212.059 46.3C212.953 45.34 213.646 44.24 214.139 43C214.646 41.7467 214.899 40.4133 214.899 39C214.899 37.5867 214.646 36.2533 214.139 35C213.646 33.7467 212.953 32.6467 212.059 31.7C211.179 30.74 210.159 29.9933 208.999 29.46C207.839 28.9133 206.593 28.64 205.259 28.64C203.926 28.64 202.679 28.9133 201.519 29.46C200.359 30.0067 199.333 30.76 198.439 31.72C197.559 32.6667 196.866 33.7667 196.359 35.02C195.866 36.26 195.619 37.5867 195.619 39C195.619 40.4267 195.866 41.7667 196.359 43.02C196.866 44.26 197.559 45.36 198.439 46.32C199.333 47.2667 200.359 48.0133 201.519 48.56C202.679 49.0933 203.926 49.36 205.259 49.36ZM222.845 53V25H227.005V48.84H239.065V53H222.845ZM253.45 53.52C251.917 53.52 250.444 53.28 249.03 52.8C247.617 52.32 246.384 51.6333 245.33 50.74C244.277 49.8333 243.524 48.76 243.07 47.52L246.97 46.06C247.197 46.7 247.63 47.2733 248.27 47.78C248.924 48.2733 249.697 48.66 250.59 48.94C251.497 49.22 252.45 49.36 253.45 49.36C254.517 49.36 255.517 49.1867 256.45 48.84C257.397 48.4933 258.157 48.0133 258.73 47.4C259.317 46.7867 259.61 46.0667 259.61 45.24C259.61 44.3867 259.304 43.6867 258.69 43.14C258.09 42.5933 257.317 42.16 256.37 41.84C255.437 41.52 254.464 41.28 253.45 41.12C251.49 40.8 249.73 40.3333 248.17 39.72C246.624 39.1067 245.397 38.2467 244.49 37.14C243.597 36.0333 243.15 34.5933 243.15 32.82C243.15 31.1533 243.624 29.7 244.57 28.46C245.53 27.22 246.79 26.26 248.35 25.58C249.924 24.8867 251.624 24.54 253.45 24.54C254.957 24.54 256.41 24.78 257.81 25.26C259.224 25.7267 260.464 26.4133 261.53 27.32C262.61 28.2133 263.384 29.3 263.85 30.58L259.91 32C259.684 31.3467 259.25 30.78 258.61 30.3C257.97 29.8067 257.197 29.42 256.29 29.14C255.397 28.86 254.45 28.72 253.45 28.72C252.384 28.7067 251.384 28.88 250.45 29.24C249.53 29.5867 248.777 30.0667 248.19 30.68C247.604 31.2933 247.31 32.0067 247.31 32.82C247.31 33.82 247.584 34.58 248.13 35.1C248.677 35.62 249.41 36.0067 250.33 36.26C251.264 36.5 252.304 36.72 253.45 36.92C255.29 37.2133 256.99 37.7 258.55 38.38C260.124 39.06 261.384 39.9667 262.33 41.1C263.29 42.22 263.77 43.6 263.77 45.24C263.77 46.8933 263.29 48.3467 262.33 49.6C261.384 50.84 260.124 51.8067 258.55 52.5C256.99 53.18 255.29 53.52 253.45 53.52ZM280.884 53.52C278.991 53.52 277.211 53.1467 275.544 52.4C273.878 51.64 272.411 50.5933 271.144 49.26C269.878 47.9267 268.884 46.3867 268.164 44.64C267.444 42.88 267.084 41 267.084 39C267.084 37 267.444 35.1267 268.164 33.38C268.884 31.62 269.878 30.0733 271.144 28.74C272.411 27.4067 273.878 26.3667 275.544 25.62C277.211 24.86 278.991 24.48 280.884 24.48C282.791 24.48 284.578 24.86 286.244 25.62C287.911 26.3667 289.378 27.4067 290.644 28.74C291.911 30.0733 292.898 31.62 293.604 33.38C294.324 35.1267 294.684 37 294.684 39C294.684 41 294.324 42.88 293.604 44.64C292.898 46.3867 291.911 47.9267 290.644 49.26C289.378 50.5933 287.911 51.64 286.244 52.4C284.578 53.1467 282.791 53.52 280.884 53.52ZM280.884 49.36C282.218 49.36 283.464 49.0867 284.624 48.54C285.784 47.9933 286.804 47.2467 287.684 46.3C288.578 45.34 289.271 44.24 289.764 43C290.271 41.7467 290.524 40.4133 290.524 39C290.524 37.5867 290.271 36.2533 289.764 35C289.271 33.7467 288.578 32.6467 287.684 31.7C286.804 30.74 285.784 29.9933 284.624 29.46C283.464 28.9133 282.218 28.64 280.884 28.64C279.551 28.64 278.304 28.9133 277.144 29.46C275.984 30.0067 274.958 30.76 274.064 31.72C273.184 32.6667 272.491 33.7667 271.984 35.02C271.491 36.26 271.244 37.5867 271.244 39C271.244 40.4267 271.491 41.7667 271.984 43.02C272.491 44.26 273.184 45.36 274.064 46.32C274.958 47.2667 275.984 48.0133 277.144 48.56C278.304 49.0933 279.551 49.36 280.884 49.36ZM308.802 53.52C307.269 53.52 305.795 53.28 304.382 52.8C302.969 52.32 301.735 51.6333 300.682 50.74C299.629 49.8333 298.875 48.76 298.422 47.52L302.322 46.06C302.549 46.7 302.982 47.2733 303.622 47.78C304.275 48.2733 305.049 48.66 305.942 48.94C306.849 49.22 307.802 49.36 308.802 49.36C309.869 49.36 310.869 49.1867 311.802 48.84C312.749 48.4933 313.509 48.0133 314.082 47.4C314.669 46.7867 314.962 46.0667 314.962 45.24C314.962 44.3867 314.655 43.6867 314.042 43.14C313.442 42.5933 312.669 42.16 311.722 41.84C310.789 41.52 309.815 41.28 308.802 41.12C306.842 40.8 305.082 40.3333 303.522 39.72C301.975 39.1067 300.749 38.2467 299.842 37.14C298.949 36.0333 298.502 34.5933 298.502 32.82C298.502 31.1533 298.975 29.7 299.922 28.46C300.882 27.22 302.142 26.26 303.702 25.58C305.275 24.8867 306.975 24.54 308.802 24.54C310.309 24.54 311.762 24.78 313.162 25.26C314.575 25.7267 315.815 26.4133 316.882 27.32C317.962 28.2133 318.735 29.3 319.202 30.58L315.262 32C315.035 31.3467 314.602 30.78 313.962 30.3C313.322 29.8067 312.549 29.42 311.642 29.14C310.749 28.86 309.802 28.72 308.802 28.72C307.735 28.7067 306.735 28.88 305.802 29.24C304.882 29.5867 304.129 30.0667 303.542 30.68C302.955 31.2933 302.662 32.0067 302.662 32.82C302.662 33.82 302.935 34.58 303.482 35.1C304.029 35.62 304.762 36.0067 305.682 36.26C306.615 36.5 307.655 36.72 308.802 36.92C310.642 37.2133 312.342 37.7 313.902 38.38C315.475 39.06 316.735 39.9667 317.682 41.1C318.642 42.22 319.122 43.6 319.122 45.24C319.122 46.8933 318.642 48.3467 317.682 49.6C316.735 50.84 315.475 51.8067 313.902 52.5C312.342 53.18 310.642 53.52 308.802 53.52ZM330.975 25H335.835L346.015 53H341.615L339.675 47.68H327.135L325.215 53H320.795L330.975 25ZM328.675 43.52H338.135L333.395 30.52L328.675 43.52ZM349.525 53V25H353.685V48.84H365.745V53H349.525ZM379.863 53.52C377.623 53.52 375.669 52.9733 374.003 51.88C372.349 50.7867 371.063 49.32 370.143 47.48C369.236 45.6267 368.783 43.5733 368.783 41.32V25H372.943V41.32C372.943 42.7867 373.209 44.1333 373.743 45.36C374.289 46.5733 375.076 47.5467 376.103 48.28C377.143 49 378.396 49.36 379.863 49.36C381.369 49.36 382.636 49 383.663 48.28C384.689 47.5467 385.463 46.5733 385.983 45.36C386.516 44.1333 386.783 42.7867 386.783 41.32V25H390.943V41.32C390.943 43.0133 390.683 44.6 390.163 46.08C389.643 47.5467 388.896 48.84 387.923 49.96C386.949 51.08 385.783 51.9533 384.423 52.58C383.063 53.2067 381.543 53.52 379.863 53.52ZM395.384 53V25H404.644C406.578 25 408.391 25.3667 410.084 26.1C411.778 26.82 413.264 27.8267 414.544 29.12C415.824 30.4 416.824 31.8867 417.544 33.58C418.278 35.26 418.644 37.0667 418.644 39C418.644 40.9333 418.278 42.7467 417.544 44.44C416.824 46.12 415.824 47.6067 414.544 48.9C413.264 50.18 411.778 51.1867 410.084 51.92C408.391 52.64 406.578 53 404.644 53H395.384ZM399.544 48.84H404.644C406.004 48.84 407.271 48.5867 408.444 48.08C409.631 47.5733 410.678 46.8667 411.584 45.96C412.504 45.0533 413.218 44.0067 413.724 42.82C414.231 41.6333 414.484 40.36 414.484 39C414.484 37.64 414.231 36.3667 413.724 35.18C413.218 33.9933 412.504 32.9467 411.584 32.04C410.678 31.1333 409.631 30.4267 408.444 29.92C407.271 29.4133 406.004 29.16 404.644 29.16H399.544V48.84Z" fill="#B461E5"/>
<path d="M66.4 53V25H76.7C78.22 25 79.5867 25.3733 80.8 26.12C82.0133 26.8667 82.9733 27.8733 83.68 29.14C84.4 30.3933 84.76 31.7933 84.76 33.34C84.76 34.6467 84.5133 35.84 84.02 36.92C83.54 38 82.86 38.92 81.98 39.68C81.1133 40.44 80.12 40.9867 79 41.32L85.76 53H80.94L74.38 41.7H70.56V53H66.4ZM70.56 37.54H76.26C77.06 37.54 77.7867 37.34 78.44 36.94C79.1067 36.54 79.6333 36.0067 80.02 35.34C80.4067 34.6733 80.6 33.92 80.6 33.08C80.6 32.24 80.4067 31.4867 80.02 30.82C79.6333 30.14 79.1067 29.6067 78.44 29.22C77.7867 28.82 77.06 28.62 76.26 28.62H70.56V37.54ZM89.9547 53V25H107.335V29.16H94.1147V35.92H104.755V40.08H94.1147V48.84H107.335V53H89.9547ZM111.908 53V25H129.288V29.16H116.068V35.92H126.708V40.08H116.068V48.84H129.288V53H111.908ZM133.705 53L139.125 25H142.485L149.665 43.86L156.805 25H160.165L165.605 53H161.365L157.745 34.26L151.045 51.94H148.245L141.565 34.26L137.945 53H133.705ZM169.681 53V25H179.621C181.061 25 182.361 25.2933 183.521 25.88C184.695 26.4667 185.621 27.3133 186.301 28.42C186.995 29.5133 187.341 30.8267 187.341 32.36C187.341 33.1067 187.221 33.84 186.981 34.56C186.741 35.28 186.401 35.9133 185.961 36.46C185.521 37.0067 184.988 37.3933 184.361 37.62C185.215 37.8333 185.921 38.22 186.481 38.78C187.055 39.3267 187.508 39.9667 187.841 40.7C188.175 41.4333 188.408 42.1933 188.541 42.98C188.688 43.7667 188.761 44.5133 188.761 45.22C188.761 46.7133 188.401 48.0467 187.681 49.22C186.961 50.3933 185.995 51.32 184.781 52C183.581 52.6667 182.255 53 180.801 53H169.681ZM173.841 49.4H180.401C181.255 49.4 182.028 49.1867 182.721 48.76C183.428 48.3333 183.988 47.7467 184.401 47C184.815 46.24 185.021 45.3867 185.021 44.44C185.021 43.6133 184.815 42.8333 184.401 42.1C183.988 41.3533 183.428 40.7533 182.721 40.3C182.028 39.8467 181.255 39.62 180.401 39.62H173.841V49.4ZM173.841 36.08H179.181C180.275 36.08 181.215 35.7467 182.001 35.08C182.788 34.4133 183.181 33.5 183.181 32.34C183.181 31.1 182.788 30.1733 182.001 29.56C181.215 28.9333 180.275 28.62 179.181 28.62H173.841V36.08ZM205.259 53.52C203.366 53.52 201.586 53.1467 199.919 52.4C198.253 51.64 196.786 50.5933 195.519 49.26C194.253 47.9267 193.259 46.3867 192.539 44.64C191.819 42.88 191.459 41 191.459 39C191.459 37 191.819 35.1267 192.539 33.38C193.259 31.62 194.253 30.0733 195.519 28.74C196.786 27.4067 198.253 26.3667 199.919 25.62C201.586 24.86 203.366 24.48 205.259 24.48C207.166 24.48 208.953 24.86 210.619 25.62C212.286 26.3667 213.753 27.4067 215.019 28.74C216.286 30.0733 217.273 31.62 217.979 33.38C218.699 35.1267 219.059 37 219.059 39C219.059 41 218.699 42.88 217.979 44.64C217.273 46.3867 216.286 47.9267 215.019 49.26C213.753 50.5933 212.286 51.64 210.619 52.4C208.953 53.1467 207.166 53.52 205.259 53.52ZM205.259 49.36C206.593 49.36 207.839 49.0867 208.999 48.54C210.159 47.9933 211.179 47.2467 212.059 46.3C212.953 45.34 213.646 44.24 214.139 43C214.646 41.7467 214.899 40.4133 214.899 39C214.899 37.5867 214.646 36.2533 214.139 35C213.646 33.7467 212.953 32.6467 212.059 31.7C211.179 30.74 210.159 29.9933 208.999 29.46C207.839 28.9133 206.593 28.64 205.259 28.64C203.926 28.64 202.679 28.9133 201.519 29.46C200.359 30.0067 199.333 30.76 198.439 31.72C197.559 32.6667 196.866 33.7667 196.359 35.02C195.866 36.26 195.619 37.5867 195.619 39C195.619 40.4267 195.866 41.7667 196.359 43.02C196.866 44.26 197.559 45.36 198.439 46.32C199.333 47.2667 200.359 48.0133 201.519 48.56C202.679 49.0933 203.926 49.36 205.259 49.36ZM222.845 53V25H227.005V48.84H239.065V53H222.845ZM253.45 53.52C251.917 53.52 250.444 53.28 249.03 52.8C247.617 52.32 246.384 51.6333 245.33 50.74C244.277 49.8333 243.524 48.76 243.07 47.52L246.97 46.06C247.197 46.7 247.63 47.2733 248.27 47.78C248.924 48.2733 249.697 48.66 250.59 48.94C251.497 49.22 252.45 49.36 253.45 49.36C254.517 49.36 255.517 49.1867 256.45 48.84C257.397 48.4933 258.157 48.0133 258.73 47.4C259.317 46.7867 259.61 46.0667 259.61 45.24C259.61 44.3867 259.304 43.6867 258.69 43.14C258.09 42.5933 257.317 42.16 256.37 41.84C255.437 41.52 254.464 41.28 253.45 41.12C251.49 40.8 249.73 40.3333 248.17 39.72C246.624 39.1067 245.397 38.2467 244.49 37.14C243.597 36.0333 243.15 34.5933 243.15 32.82C243.15 31.1533 243.624 29.7 244.57 28.46C245.53 27.22 246.79 26.26 248.35 25.58C249.924 24.8867 251.624 24.54 253.45 24.54C254.957 24.54 256.41 24.78 257.81 25.26C259.224 25.7267 260.464 26.4133 261.53 27.32C262.61 28.2133 263.384 29.3 263.85 30.58L259.91 32C259.684 31.3467 259.25 30.78 258.61 30.3C257.97 29.8067 257.197 29.42 256.29 29.14C255.397 28.86 254.45 28.72 253.45 28.72C252.384 28.7067 251.384 28.88 250.45 29.24C249.53 29.5867 248.777 30.0667 248.19 30.68C247.604 31.2933 247.31 32.0067 247.31 32.82C247.31 33.82 247.584 34.58 248.13 35.1C248.677 35.62 249.41 36.0067 250.33 36.26C251.264 36.5 252.304 36.72 253.45 36.92C255.29 37.2133 256.99 37.7 258.55 38.38C260.124 39.06 261.384 39.9667 262.33 41.1C263.29 42.22 263.77 43.6 263.77 45.24C263.77 46.8933 263.29 48.3467 262.33 49.6C261.384 50.84 260.124 51.8067 258.55 52.5C256.99 53.18 255.29 53.52 253.45 53.52ZM280.884 53.52C278.991 53.52 277.211 53.1467 275.544 52.4C273.878 51.64 272.411 50.5933 271.144 49.26C269.878 47.9267 268.884 46.3867 268.164 44.64C267.444 42.88 267.084 41 267.084 39C267.084 37 267.444 35.1267 268.164 33.38C268.884 31.62 269.878 30.0733 271.144 28.74C272.411 27.4067 273.878 26.3667 275.544 25.62C277.211 24.86 278.991 24.48 280.884 24.48C282.791 24.48 284.578 24.86 286.244 25.62C287.911 26.3667 289.378 27.4067 290.644 28.74C291.911 30.0733 292.898 31.62 293.604 33.38C294.324 35.1267 294.684 37 294.684 39C294.684 41 294.324 42.88 293.604 44.64C292.898 46.3867 291.911 47.9267 290.644 49.26C289.378 50.5933 287.911 51.64 286.244 52.4C284.578 53.1467 282.791 53.52 280.884 53.52ZM280.884 49.36C282.218 49.36 283.464 49.0867 284.624 48.54C285.784 47.9933 286.804 47.2467 287.684 46.3C288.578 45.34 289.271 44.24 289.764 43C290.271 41.7467 290.524 40.4133 290.524 39C290.524 37.5867 290.271 36.2533 289.764 35C289.271 33.7467 288.578 32.6467 287.684 31.7C286.804 30.74 285.784 29.9933 284.624 29.46C283.464 28.9133 282.218 28.64 280.884 28.64C279.551 28.64 278.304 28.9133 277.144 29.46C275.984 30.0067 274.958 30.76 274.064 31.72C273.184 32.6667 272.491 33.7667 271.984 35.02C271.491 36.26 271.244 37.5867 271.244 39C271.244 40.4267 271.491 41.7667 271.984 43.02C272.491 44.26 273.184 45.36 274.064 46.32C274.958 47.2667 275.984 48.0133 277.144 48.56C278.304 49.0933 279.551 49.36 280.884 49.36ZM308.802 53.52C307.269 53.52 305.795 53.28 304.382 52.8C302.969 52.32 301.735 51.6333 300.682 50.74C299.629 49.8333 298.875 48.76 298.422 47.52L302.322 46.06C302.549 46.7 302.982 47.2733 303.622 47.78C304.275 48.2733 305.049 48.66 305.942 48.94C306.849 49.22 307.802 49.36 308.802 49.36C309.869 49.36 310.869 49.1867 311.802 48.84C312.749 48.4933 313.509 48.0133 314.082 47.4C314.669 46.7867 314.962 46.0667 314.962 45.24C314.962 44.3867 314.655 43.6867 314.042 43.14C313.442 42.5933 312.669 42.16 311.722 41.84C310.789 41.52 309.815 41.28 308.802 41.12C306.842 40.8 305.082 40.3333 303.522 39.72C301.975 39.1067 300.749 38.2467 299.842 37.14C298.949 36.0333 298.502 34.5933 298.502 32.82C298.502 31.1533 298.975 29.7 299.922 28.46C300.882 27.22 302.142 26.26 303.702 25.58C305.275 24.8867 306.975 24.54 308.802 24.54C310.309 24.54 311.762 24.78 313.162 25.26C314.575 25.7267 315.815 26.4133 316.882 27.32C317.962 28.2133 318.735 29.3 319.202 30.58L315.262 32C315.035 31.3467 314.602 30.78 313.962 30.3C313.322 29.8067 312.549 29.42 311.642 29.14C310.749 28.86 309.802 28.72 308.802 28.72C307.735 28.7067 306.735 28.88 305.802 29.24C304.882 29.5867 304.129 30.0667 303.542 30.68C302.955 31.2933 302.662 32.0067 302.662 32.82C302.662 33.82 302.935 34.58 303.482 35.1C304.029 35.62 304.762 36.0067 305.682 36.26C306.615 36.5 307.655 36.72 308.802 36.92C310.642 37.2133 312.342 37.7 313.902 38.38C315.475 39.06 316.735 39.9667 317.682 41.1C318.642 42.22 319.122 43.6 319.122 45.24C319.122 46.8933 318.642 48.3467 317.682 49.6C316.735 50.84 315.475 51.8067 313.902 52.5C312.342 53.18 310.642 53.52 308.802 53.52ZM330.975 25H335.835L346.015 53H341.615L339.675 47.68H327.135L325.215 53H320.795L330.975 25ZM328.675 43.52H338.135L333.395 30.52L328.675 43.52ZM349.525 53V25H353.685V48.84H365.745V53H349.525ZM379.863 53.52C377.623 53.52 375.669 52.9733 374.003 51.88C372.349 50.7867 371.063 49.32 370.143 47.48C369.236 45.6267 368.783 43.5733 368.783 41.32V25H372.943V41.32C372.943 42.7867 373.209 44.1333 373.743 45.36C374.289 46.5733 375.076 47.5467 376.103 48.28C377.143 49 378.396 49.36 379.863 49.36C381.369 49.36 382.636 49 383.663 48.28C384.689 47.5467 385.463 46.5733 385.983 45.36C386.516 44.1333 386.783 42.7867 386.783 41.32V25H390.943V41.32C390.943 43.0133 390.683 44.6 390.163 46.08C389.643 47.5467 388.896 48.84 387.923 49.96C386.949 51.08 385.783 51.9533 384.423 52.58C383.063 53.2067 381.543 53.52 379.863 53.52ZM395.384 53V25H404.644C406.578 25 408.391 25.3667 410.084 26.1C411.778 26.82 413.264 27.8267 414.544 29.12C415.824 30.4 416.824 31.8867 417.544 33.58C418.278 35.26 418.644 37.0667 418.644 39C418.644 40.9333 418.278 42.7467 417.544 44.44C416.824 46.12 415.824 47.6067 414.544 48.9C413.264 50.18 411.778 51.1867 410.084 51.92C408.391 52.64 406.578 53 404.644 53H395.384ZM399.544 48.84H404.644C406.004 48.84 407.271 48.5867 408.444 48.08C409.631 47.5733 410.678 46.8667 411.584 45.96C412.504 45.0533 413.218 44.0067 413.724 42.82C414.231 41.6333 414.484 40.36 414.484 39C414.484 37.64 414.231 36.3667 413.724 35.18C413.218 33.9933 412.504 32.9467 411.584 32.04C410.678 31.1333 409.631 30.4267 408.444 29.92C407.271 29.4133 406.004 29.16 404.644 29.16H399.544V48.84Z" fill="#B461E5"/>
<path d="M66.4 53V25H76.7C78.22 25 79.5867 25.3733 80.8 26.12C82.0133 26.8667 82.9733 27.8733 83.68 29.14C84.4 30.3933 84.76 31.7933 84.76 33.34C84.76 34.6467 84.5133 35.84 84.02 36.92C83.54 38 82.86 38.92 81.98 39.68C81.1133 40.44 80.12 40.9867 79 41.32L85.76 53H80.94L74.38 41.7H70.56V53H66.4ZM70.56 37.54H76.26C77.06 37.54 77.7867 37.34 78.44 36.94C79.1067 36.54 79.6333 36.0067 80.02 35.34C80.4067 34.6733 80.6 33.92 80.6 33.08C80.6 32.24 80.4067 31.4867 80.02 30.82C79.6333 30.14 79.1067 29.6067 78.44 29.22C77.7867 28.82 77.06 28.62 76.26 28.62H70.56V37.54ZM89.9547 53V25H107.335V29.16H94.1147V35.92H104.755V40.08H94.1147V48.84H107.335V53H89.9547ZM111.908 53V25H129.288V29.16H116.068V35.92H126.708V40.08H116.068V48.84H129.288V53H111.908ZM133.705 53L139.125 25H142.485L149.665 43.86L156.805 25H160.165L165.605 53H161.365L157.745 34.26L151.045 51.94H148.245L141.565 34.26L137.945 53H133.705ZM169.681 53V25H179.621C181.061 25 182.361 25.2933 183.521 25.88C184.695 26.4667 185.621 27.3133 186.301 28.42C186.995 29.5133 187.341 30.8267 187.341 32.36C187.341 33.1067 187.221 33.84 186.981 34.56C186.741 35.28 186.401 35.9133 185.961 36.46C185.521 37.0067 184.988 37.3933 184.361 37.62C185.215 37.8333 185.921 38.22 186.481 38.78C187.055 39.3267 187.508 39.9667 187.841 40.7C188.175 41.4333 188.408 42.1933 188.541 42.98C188.688 43.7667 188.761 44.5133 188.761 45.22C188.761 46.7133 188.401 48.0467 187.681 49.22C186.961 50.3933 185.995 51.32 184.781 52C183.581 52.6667 182.255 53 180.801 53H169.681ZM173.841 49.4H180.401C181.255 49.4 182.028 49.1867 182.721 48.76C183.428 48.3333 183.988 47.7467 184.401 47C184.815 46.24 185.021 45.3867 185.021 44.44C185.021 43.6133 184.815 42.8333 184.401 42.1C183.988 41.3533 183.428 40.7533 182.721 40.3C182.028 39.8467 181.255 39.62 180.401 39.62H173.841V49.4ZM173.841 36.08H179.181C180.275 36.08 181.215 35.7467 182.001 35.08C182.788 34.4133 183.181 33.5 183.181 32.34C183.181 31.1 182.788 30.1733 182.001 29.56C181.215 28.9333 180.275 28.62 179.181 28.62H173.841V36.08ZM205.259 53.52C203.366 53.52 201.586 53.1467 199.919 52.4C198.253 51.64 196.786 50.5933 195.519 49.26C194.253 47.9267 193.259 46.3867 192.539 44.64C191.819 42.88 191.459 41 191.459 39C191.459 37 191.819 35.1267 192.539 33.38C193.259 31.62 194.253 30.0733 195.519 28.74C196.786 27.4067 198.253 26.3667 199.919 25.62C201.586 24.86 203.366 24.48 205.259 24.48C207.166 24.48 208.953 24.86 210.619 25.62C212.286 26.3667 213.753 27.4067 215.019 28.74C216.286 30.0733 217.273 31.62 217.979 33.38C218.699 35.1267 219.059 37 219.059 39C219.059 41 218.699 42.88 217.979 44.64C217.273 46.3867 216.286 47.9267 215.019 49.26C213.753 50.5933 212.286 51.64 210.619 52.4C208.953 53.1467 207.166 53.52 205.259 53.52ZM205.259 49.36C206.593 49.36 207.839 49.0867 208.999 48.54C210.159 47.9933 211.179 47.2467 212.059 46.3C212.953 45.34 213.646 44.24 214.139 43C214.646 41.7467 214.899 40.4133 214.899 39C214.899 37.5867 214.646 36.2533 214.139 35C213.646 33.7467 212.953 32.6467 212.059 31.7C211.179 30.74 210.159 29.9933 208.999 29.46C207.839 28.9133 206.593 28.64 205.259 28.64C203.926 28.64 202.679 28.9133 201.519 29.46C200.359 30.0067 199.333 30.76 198.439 31.72C197.559 32.6667 196.866 33.7667 196.359 35.02C195.866 36.26 195.619 37.5867 195.619 39C195.619 40.4267 195.866 41.7667 196.359 43.02C196.866 44.26 197.559 45.36 198.439 46.32C199.333 47.2667 200.359 48.0133 201.519 48.56C202.679 49.0933 203.926 49.36 205.259 49.36ZM222.845 53V25H227.005V48.84H239.065V53H222.845ZM253.45 53.52C251.917 53.52 250.444 53.28 249.03 52.8C247.617 52.32 246.384 51.6333 245.33 50.74C244.277 49.8333 243.524 48.76 243.07 47.52L246.97 46.06C247.197 46.7 247.63 47.2733 248.27 47.78C248.924 48.2733 249.697 48.66 250.59 48.94C251.497 49.22 252.45 49.36 253.45 49.36C254.517 49.36 255.517 49.1867 256.45 48.84C257.397 48.4933 258.157 48.0133 258.73 47.4C259.317 46.7867 259.61 46.0667 259.61 45.24C259.61 44.3867 259.304 43.6867 258.69 43.14C258.09 42.5933 257.317 42.16 256.37 41.84C255.437 41.52 254.464 41.28 253.45 41.12C251.49 40.8 249.73 40.3333 248.17 39.72C246.624 39.1067 245.397 38.2467 244.49 37.14C243.597 36.0333 243.15 34.5933 243.15 32.82C243.15 31.1533 243.624 29.7 244.57 28.46C245.53 27.22 246.79 26.26 248.35 25.58C249.924 24.8867 251.624 24.54 253.45 24.54C254.957 24.54 256.41 24.78 257.81 25.26C259.224 25.7267 260.464 26.4133 261.53 27.32C262.61 28.2133 263.384 29.3 263.85 30.58L259.91 32C259.684 31.3467 259.25 30.78 258.61 30.3C257.97 29.8067 257.197 29.42 256.29 29.14C255.397 28.86 254.45 28.72 253.45 28.72C252.384 28.7067 251.384 28.88 250.45 29.24C249.53 29.5867 248.777 30.0667 248.19 30.68C247.604 31.2933 247.31 32.0067 247.31 32.82C247.31 33.82 247.584 34.58 248.13 35.1C248.677 35.62 249.41 36.0067 250.33 36.26C251.264 36.5 252.304 36.72 253.45 36.92C255.29 37.2133 256.99 37.7 258.55 38.38C260.124 39.06 261.384 39.9667 262.33 41.1C263.29 42.22 263.77 43.6 263.77 45.24C263.77 46.8933 263.29 48.3467 262.33 49.6C261.384 50.84 260.124 51.8067 258.55 52.5C256.99 53.18 255.29 53.52 253.45 53.52ZM280.884 53.52C278.991 53.52 277.211 53.1467 275.544 52.4C273.878 51.64 272.411 50.5933 271.144 49.26C269.878 47.9267 268.884 46.3867 268.164 44.64C267.444 42.88 267.084 41 267.084 39C267.084 37 267.444 35.1267 268.164 33.38C268.884 31.62 269.878 30.0733 271.144 28.74C272.411 27.4067 273.878 26.3667 275.544 25.62C277.211 24.86 278.991 24.48 280.884 24.48C282.791 24.48 284.578 24.86 286.244 25.62C287.911 26.3667 289.378 27.4067 290.644 28.74C291.911 30.0733 292.898 31.62 293.604 33.38C294.324 35.1267 294.684 37 294.684 39C294.684 41 294.324 42.88 293.604 44.64C292.898 46.3867 291.911 47.9267 290.644 49.26C289.378 50.5933 287.911 51.64 286.244 52.4C284.578 53.1467 282.791 53.52 280.884 53.52ZM280.884 49.36C282.218 49.36 283.464 49.0867 284.624 48.54C285.784 47.9933 286.804 47.2467 287.684 46.3C288.578 45.34 289.271 44.24 289.764 43C290.271 41.7467 290.524 40.4133 290.524 39C290.524 37.5867 290.271 36.2533 289.764 35C289.271 33.7467 288.578 32.6467 287.684 31.7C286.804 30.74 285.784 29.9933 284.624 29.46C283.464 28.9133 282.218 28.64 280.884 28.64C279.551 28.64 278.304 28.9133 277.144 29.46C275.984 30.0067 274.958 30.76 274.064 31.72C273.184 32.6667 272.491 33.7667 271.984 35.02C271.491 36.26 271.244 37.5867 271.244 39C271.244 40.4267 271.491 41.7667 271.984 43.02C272.491 44.26 273.184 45.36 274.064 46.32C274.958 47.2667 275.984 48.0133 277.144 48.56C278.304 49.0933 279.551 49.36 280.884 49.36ZM308.802 53.52C307.269 53.52 305.795 53.28 304.382 52.8C302.969 52.32 301.735 51.6333 300.682 50.74C299.629 49.8333 298.875 48.76 298.422 47.52L302.322 46.06C302.549 46.7 302.982 47.2733 303.622 47.78C304.275 48.2733 305.049 48.66 305.942 48.94C306.849 49.22 307.802 49.36 308.802 49.36C309.869 49.36 310.869 49.1867 311.802 48.84C312.749 48.4933 313.509 48.0133 314.082 47.4C314.669 46.7867 314.962 46.0667 314.962 45.24C314.962 44.3867 314.655 43.6867 314.042 43.14C313.442 42.5933 312.669 42.16 311.722 41.84C310.789 41.52 309.815 41.28 308.802 41.12C306.842 40.8 305.082 40.3333 303.522 39.72C301.975 39.1067 300.749 38.2467 299.842 37.14C298.949 36.0333 298.502 34.5933 298.502 32.82C298.502 31.1533 298.975 29.7 299.922 28.46C300.882 27.22 302.142 26.26 303.702 25.58C305.275 24.8867 306.975 24.54 308.802 24.54C310.309 24.54 311.762 24.78 313.162 25.26C314.575 25.7267 315.815 26.4133 316.882 27.32C317.962 28.2133 318.735 29.3 319.202 30.58L315.262 32C315.035 31.3467 314.602 30.78 313.962 30.3C313.322 29.8067 312.549 29.42 311.642 29.14C310.749 28.86 309.802 28.72 308.802 28.72C307.735 28.7067 306.735 28.88 305.802 29.24C304.882 29.5867 304.129 30.0667 303.542 30.68C302.955 31.2933 302.662 32.0067 302.662 32.82C302.662 33.82 302.935 34.58 303.482 35.1C304.029 35.62 304.762 36.0067 305.682 36.26C306.615 36.5 307.655 36.72 308.802 36.92C310.642 37.2133 312.342 37.7 313.902 38.38C315.475 39.06 316.735 39.9667 317.682 41.1C318.642 42.22 319.122 43.6 319.122 45.24C319.122 46.8933 318.642 48.3467 317.682 49.6C316.735 50.84 315.475 51.8067 313.902 52.5C312.342 53.18 310.642 53.52 308.802 53.52ZM330.975 25H335.835L346.015 53H341.615L339.675 47.68H327.135L325.215 53H320.795L330.975 25ZM328.675 43.52H338.135L333.395 30.52L328.675 43.52ZM349.525 53V25H353.685V48.84H365.745V53H349.525ZM379.863 53.52C377.623 53.52 375.669 52.9733 374.003 51.88C372.349 50.7867 371.063 49.32 370.143 47.48C369.236 45.6267 368.783 43.5733 368.783 41.32V25H372.943V41.32C372.943 42.7867 373.209 44.1333 373.743 45.36C374.289 46.5733 375.076 47.5467 376.103 48.28C377.143 49 378.396 49.36 379.863 49.36C381.369 49.36 382.636 49 383.663 48.28C384.689 47.5467 385.463 46.5733 385.983 45.36C386.516 44.1333 386.783 42.7867 386.783 41.32V25H390.943V41.32C390.943 43.0133 390.683 44.6 390.163 46.08C389.643 47.5467 388.896 48.84 387.923 49.96C386.949 51.08 385.783 51.9533 384.423 52.58C383.063 53.2067 381.543 53.52 379.863 53.52ZM395.384 53V25H404.644C406.578 25 408.391 25.3667 410.084 26.1C411.778 26.82 413.264 27.8267 414.544 29.12C415.824 30.4 416.824 31.8867 417.544 33.58C418.278 35.26 418.644 37.0667 418.644 39C418.644 40.9333 418.278 42.7467 417.544 44.44C416.824 46.12 415.824 47.6067 414.544 48.9C413.264 50.18 411.778 51.1867 410.084 51.92C408.391 52.64 406.578 53 404.644 53H395.384ZM399.544 48.84H404.644C406.004 48.84 407.271 48.5867 408.444 48.08C409.631 47.5733 410.678 46.8667 411.584 45.96C412.504 45.0533 413.218 44.0067 413.724 42.82C414.231 41.6333 414.484 40.36 414.484 39C414.484 37.64 414.231 36.3667 413.724 35.18C413.218 33.9933 412.504 32.9467 411.584 32.04C410.678 31.1333 409.631 30.4267 408.444 29.92C407.271 29.4133 406.004 29.16 404.644 29.16H399.544V48.84Z" fill="#B461E5"/>
<path d="M23.871 38.2688C23.1013 37.2417 21.6418 37.0305 20.618 37.8026C19.5942 38.5748 19.3836 40.039 20.1533 41.0661L22.9198 44.7667C23.2683 45.2329 23.2175 45.8812 22.8109 46.2891L21.8814 47.2216C21.3949 47.7096 20.6035 47.6732 20.1678 47.1414L13.6472 39.2887V28.4784C13.6472 27.189 12.6088 26.1474 11.3236 26.1474C10.0384 26.1474 9 27.189 9 28.4784V44.3879C9 45.1819 9.26867 45.9541 9.76243 46.5732L17.3214 56.3564C17.6844 56.8299 17.9313 57.3689 18.0766 57.9371C18.2073 58.4398 18.6647 58.7822 19.1875 58.7822H28.7506C29.3896 58.7822 29.9124 58.2577 29.9124 57.6166V49.4579C29.9124 47.4401 29.2589 45.4806 28.0535 43.8634L23.871 38.2688ZM53.1484 26.1474C51.8631 26.1474 50.8248 27.189 50.8248 28.4784V39.2887L44.3042 47.1414C43.8685 47.6659 43.0698 47.7023 42.5905 47.2216L41.6611 46.2891C41.2544 45.8812 41.2036 45.2329 41.5522 44.7667L44.3187 41.0661C45.0884 40.039 44.8778 38.5748 43.854 37.8026C42.8301 37.0305 41.3706 37.2417 40.6009 38.2688L36.4185 43.8634C35.2131 45.4806 34.5596 47.4401 34.5596 49.4579V57.6166C34.5596 58.2577 35.0824 58.7822 35.7214 58.7822H45.2844C45.8 58.7822 46.2647 58.4398 46.3954 57.9371C46.5406 57.3689 46.7875 56.8299 47.1506 56.3564L54.7095 46.5732C55.2033 45.9541 55.472 45.1819 55.472 44.3879V28.4784C55.472 27.189 54.4336 26.1474 53.1484 26.1474Z" fill="#B461E5"/>
<path d="M30.138 33.4575H34.3339V38.9956H37.7186L32.236 44.4228L26.7533 38.9956H30.138V33.4575Z" fill="#B461E5"/>
<path d="M38.2408 6.67911C40.1459 7.779 41.7279 9.36098 42.8278 11.2661C43.9276 13.1711 44.5067 15.3322 44.5067 17.5319C44.5067 19.7317 43.9276 21.8927 42.8277 23.7978C41.7278 25.7028 40.1457 27.2848 38.2407 28.3847C36.3356 29.4845 34.1745 30.0636 31.9747 30.0635C29.7749 30.0635 27.6139 29.4844 25.7088 28.3845C23.8038 27.2846 22.2218 25.7025 21.1219 23.7974C20.0221 21.8924 19.4431 19.7313 19.4431 17.5315L19.4494 17.1255C19.5196 14.9613 20.1494 12.8522 21.2773 11.0038C22.4053 9.1554 23.993 7.63083 25.8856 6.57871C27.7782 5.52659 29.9111 4.98282 32.0764 5.00041C34.2417 5.01801 36.3655 5.59637 38.2408 6.67911ZM31.9749 10.0125C31.6425 10.0125 31.3238 10.1446 31.0888 10.3796C30.8538 10.6146 30.7217 10.9333 30.7217 11.2657C29.7246 11.2657 28.7684 11.6618 28.0633 12.3668C27.3583 13.0719 26.9622 14.0281 26.9622 15.0252C26.9622 16.0223 27.3583 16.9785 28.0633 17.6836C28.7684 18.3886 29.7246 18.7847 30.7217 18.7847V21.291C30.5139 21.3025 30.3064 21.2631 30.1173 21.1762C29.9281 21.0893 29.7631 20.9575 29.6365 20.7923L29.5513 20.6657C29.3798 20.3892 29.1075 20.1902 28.792 20.1108C28.4765 20.0314 28.1425 20.0779 27.8606 20.2403C27.5787 20.4027 27.371 20.6684 27.2814 20.9812C27.1919 21.294 27.2275 21.6294 27.3808 21.9164C27.7006 22.4711 28.1569 22.9349 28.7063 23.2639C29.2556 23.5929 29.8799 23.7761 30.52 23.7961H30.7217C30.7215 24.1033 30.834 24.3998 31.038 24.6295C31.242 24.8591 31.5232 25.0058 31.8283 25.0418L31.9749 25.0505C32.3073 25.0505 32.626 24.9185 32.861 24.6835C33.0961 24.4485 33.2281 24.1297 33.2281 23.7974L33.4486 23.7911C34.4256 23.7346 35.3421 23.2994 36.0033 22.578C36.6645 21.8566 37.0183 20.9057 36.9896 19.9275C36.9609 18.9494 36.5519 18.0209 35.8495 17.3395C35.1471 16.6581 34.2067 16.2774 33.2281 16.2784V13.772C33.6767 13.757 34.069 13.9475 34.3133 14.2708L34.3986 14.3974C34.57 14.6739 34.8423 14.8729 35.1578 14.9523C35.4733 15.0316 35.8074 14.9852 36.0893 14.8228C36.3712 14.6603 36.5788 14.3946 36.6684 14.0818C36.7579 13.7691 36.7223 13.4337 36.5691 13.1467C36.2494 12.5917 35.7932 12.1276 35.2438 11.7985C34.6944 11.4693 34.07 11.2859 33.4298 11.2657H33.2281C33.2281 10.9333 33.0961 10.6146 32.861 10.3796C32.626 10.1446 32.3073 10.0125 31.9749 10.0125ZM33.2281 18.7847C33.5604 18.7847 33.8792 18.9167 34.1142 19.1517C34.3492 19.3868 34.4813 19.7055 34.4813 20.0379C34.4813 20.3702 34.3492 20.689 34.1142 20.924C33.8792 21.159 33.5604 21.291 33.2281 21.291V18.7847ZM30.7217 13.772V16.2784C30.3894 16.2784 30.0706 16.1463 29.8356 15.9113C29.6006 15.6763 29.4686 15.3576 29.4686 15.0252C29.4686 14.6928 29.6006 14.3741 29.8356 14.1391C30.0706 13.9041 30.3894 13.772 30.7217 13.772Z" fill="#B461E5"/>
</svg>
