<?xml version="1.0" encoding="utf-8"?>
<!-- Generator: Adobe Illustrator 27.5.0, SVG Export Plug-In . SVG Version: 6.00 Build 0)  -->
<svg version="1.1" xmlns="http://www.w3.org/2000/svg" xmlns:xlink="http://www.w3.org/1999/xlink" x="0px" y="0px"
	 viewBox="0 0 3710 3710" style="enable-background:new 0 0 3710 3710;" xml:space="preserve">
<g id="Background">
	<g>
		<g>
			<rect style="fill:#FFFFFF;" width="3710" height="3710"/>
		</g>
	</g>
</g>
<g id="Illustration">
	<g>
		<linearGradient id="SVGID_1_" gradientUnits="userSpaceOnUse" x1="3464.1047" y1="3269.866" x2="1398.6638" y2="1462.6064">
			<stop  offset="0" style="stop-color:#B37CFF"/>
			<stop  offset="1" style="stop-color:#F895E7"/>
		</linearGradient>
		<path style="opacity:0.3;fill:url(#SVGID_1_);" d="M3113.087,2331.275c-266.938,628.532-978,980.64-1594.634,885.66
			c-100.339-15.456-375.42-61.494-618.967-278.687c-468.844-418.113-569.109-1246.032-190.907-1829.486
			c275.265-424.652,768.705-665.373,1237.569-653.332c100.994,2.593,488.043,18.578,828.192,299.058
			c49.961,41.197,160.156,139.092,259.467,294.397C3267.01,1413.569,3287.054,1921.653,3113.087,2331.275z"/>
		<g>
			
				<linearGradient id="SVGID_00000104669858679782152200000012301060763235600827_" gradientUnits="userSpaceOnUse" x1="6536.147" y1="503.4774" x2="7598.3169" y2="503.4774" gradientTransform="matrix(0.9241 0.3823 -0.3823 0.9241 -5471.54 -1929.6399)">
				<stop  offset="0" style="stop-color:#2B3582"/>
				<stop  offset="1" style="stop-color:#150E42"/>
			</linearGradient>
			<path style="fill:url(#SVGID_00000104669858679782152200000012301060763235600827_);" d="M611.6,470.113
				c-2.63-11.198,13.121-18.641,22.767-10.819c97.946,79.424,333.282,317.265,274.632,732.909
				c-73.585,521.487,52.218,711.774,208.812,827.844c0,0-215.055-54.584-350.358-247.67
				C435.253,1298.307,658.371,669.211,611.6,470.113z"/>
			
				<linearGradient id="SVGID_00000081644784353402758500000007360738026903503009_" gradientUnits="userSpaceOnUse" x1="686.0817" y1="1304.8206" x2="1048.4028" y2="1304.8206">
				<stop  offset="0" style="stop-color:#18459F"/>
				<stop  offset="1" style="stop-color:#2874B5"/>
			</linearGradient>
			<path style="fill:url(#SVGID_00000081644784353402758500000007360738026903503009_);" d="M686.138,632.995
				c12.253,58.055,23.174,116.287,31.613,174.781c8.793,58.445,15.532,117.094,20.143,175.84
				c4.35,58.756,7.422,117.573,7.597,176.416c0.481,58.839-1.965,117.63-4.66,176.65c-2.312,58.999-5.03,118.423-0.71,178.268
				c4.247,59.723,16.818,119.968,41.765,176.444c6.236,14.075,12.794,28.107,20.243,41.665
				c7.162,13.683,15.027,27.097,23.167,40.382c16.437,26.508,34.94,52.12,55.56,76.429c41.388,48.535,91.305,91.59,146.294,128.028
				c5.788,3.835,14.08,2.892,18.522-2.105c4.361-4.907,3.387-11.9-2.129-15.783l-0.039-0.028
				c-13.084-9.189-26.031-18.497-38.452-28.271c-6.303-4.802-12.345-9.836-18.494-14.769c-5.925-5.128-12.084-10.059-17.82-15.34
				c-23.35-20.783-44.982-42.956-64.607-66.4c-39.476-46.672-71.077-98.679-95.019-152.594
				c-11.622-27.083-20.913-54.858-27.696-83.154c-6.759-28.304-11.01-57.099-13.361-86.126
				c-4.709-58.087-2.582-116.923-0.761-175.932c1.733-59.025,3.004-118.349,1.446-177.626c-0.686-29.636-1.989-59.259-3.905-88.846
				c-0.859-14.798-2.051-29.579-3.211-44.359c-1.325-14.771-2.743-29.533-4.301-44.282c-6.358-58.99-14.798-117.784-25.376-176.266
				c-10.903-58.437-23.599-116.605-38.868-174.253c-0.437-1.648-2.337-2.678-4.245-2.301
				C686.981,629.829,685.804,631.396,686.138,632.995z"/>
		</g>
		<g>
			<g>
				
					<linearGradient id="SVGID_00000104686024975240622160000001946947753304998579_" gradientUnits="userSpaceOnUse" x1="-705.7556" y1="3823.0981" x2="312.9255" y2="3823.0981" gradientTransform="matrix(0.6312 -0.7758 0.7758 0.6312 -1946.3445 -1491.1105)">
					<stop  offset="0" style="stop-color:#18459F"/>
					<stop  offset="1" style="stop-color:#2874B5"/>
				</linearGradient>
				<path style="fill:url(#SVGID_00000104686024975240622160000001946947753304998579_);" d="M813.115,1634.642
					c-12.009,12.742-33.129,9.078-40.353-6.872c-39.863-88.006-130.07-347.021,18.91-645.42
					C917.479,730.365,961.75,581.774,977.173,512.926c3.262-14.558,23.213-16.491,29.235-2.841
					C1072.85,660.682,1248.284,1172.932,813.115,1634.642z"/>
				
					<linearGradient id="SVGID_00000066493344846337255900000008908451141255021454_" gradientUnits="userSpaceOnUse" x1="783.2528" y1="1224.804" x2="963.8332" y2="1224.804">
					<stop  offset="0" style="stop-color:#2B3582"/>
					<stop  offset="1" style="stop-color:#150E42"/>
				</linearGradient>
				<path style="fill:url(#SVGID_00000066493344846337255900000008908451141255021454_);" d="M791.301,1625.356
					c-0.427,0.077-0.867,0.113-1.317,0.105c-3.775-0.058-6.788-3.165-6.73-6.939c0.066-4.28,8.394-432.044,167.493-790.314
					c1.532-3.447,5.57-5.003,9.024-3.474c3.45,1.534,5.005,5.572,3.474,9.024c-157.941,355.662-166.254,780.722-166.32,784.973
					C796.874,1622.056,794.457,1624.79,791.301,1625.356z"/>
			</g>
		</g>
		<g>
			
				<linearGradient id="SVGID_00000062188400982089133210000007444495514503927214_" gradientUnits="userSpaceOnUse" x1="3829.6362" y1="4630.1479" x2="3567.8767" y2="4951.9443" gradientTransform="matrix(-0.6935 0.7205 0.7205 0.6935 1850.1702 -3759.5798)">
				<stop  offset="0" style="stop-color:#53D8FF"/>
				<stop  offset="1" style="stop-color:#3840F7"/>
			</linearGradient>
			<path style="fill:url(#SVGID_00000062188400982089133210000007444495514503927214_);" d="M2618.278,2245.205
				c-1.591-3.315,1.704-6.871,5.131-5.541c12.688,4.925,36.299,11.548,53.879,1.583c0.886-0.502,1.745-0.962,2.589-1.396
				c-1.514-2.178-3.848-3.935-7.512-4.162c-10.486-0.65-13.894-16.153-13.894-16.153s8.885,5.775,19.029,3.316
				c8.738-2.117,20.953,2.854,26.512,12.908c25.178,31.293,57.432,74.084,122.491,49.76
				c65.058-24.323,27.313-155.153,27.313-155.153l79.292,110.142c0,0-0.434,78.316-96.682,97.936
				c-96.248,19.619-143.432-76.235-143.432-76.235S2641.475,2293.52,2618.278,2245.205z"/>
			
				<linearGradient id="SVGID_00000075136597403744645860000004314733784522944156_" gradientUnits="userSpaceOnUse" x1="3005.7283" y1="2142.2722" x2="3476.1318" y2="3200.6797">
				<stop  offset="0" style="stop-color:#2B3582"/>
				<stop  offset="1" style="stop-color:#150E42"/>
			</linearGradient>
			<path style="fill:url(#SVGID_00000075136597403744645860000004314733784522944156_);" d="M2968.323,1957.574
				c0,0-5.661,10.808,29.54,28.529c19.628,9.881,57.896,24.662,62.205,65.804c2.225,21.24,17.585,38.509,38.632,42.143
				c52.42,9.05,132.921,37.878,144.16,129.398c8.578,69.855-27.437,95.603-64.883,104.041c-27.503,6.2-46.2,32.483-41.183,60.227
				c4.81,26.61-3.688,57.106-50.072,80.474c-103.942,52.362-203.266-132.539-203.266-132.539l-15.031-319.857L2968.323,1957.574z"/>
			
				<linearGradient id="SVGID_00000116196564480183153640000016345604777140313012_" gradientUnits="userSpaceOnUse" x1="844.763" y1="3335.7283" x2="1382.6246" y2="3311.7749" gradientTransform="matrix(0.9998 0.0189 -0.0189 0.9998 -1574.1307 -24.7392)">
				<stop  offset="0" style="stop-color:#53D8FF"/>
				<stop  offset="1" style="stop-color:#3840F7"/>
			</linearGradient>
			<path style="fill:url(#SVGID_00000116196564480183153640000016345604777140313012_);" d="M3186.795,3205.247l3.565,34.771
				c0.675,6.596,5.76,11.897,12.332,12.775c11.097,1.48,28.919,3.12,46.415,1.603c7.68-0.665,12.802-8.332,10.606-15.721
				c-4.003-13.473-11.412-33.723-22.416-45.766l-38.483-0.727C3191.699,3192.047,3186.07,3198.167,3186.795,3205.247z"/>
			
				<linearGradient id="SVGID_00000000216138050972866120000006902343553048469408_" gradientUnits="userSpaceOnUse" x1="487.2786" y1="3450.0085" x2="594.066" y2="2201.9304" gradientTransform="matrix(0.9998 0.0189 -0.0189 0.9998 2445.3633 51.1579)">
				<stop  offset="0" style="stop-color:#F9B776"/>
				<stop  offset="1" style="stop-color:#F47960"/>
			</linearGradient>
			<path style="fill:url(#SVGID_00000000216138050972866120000006902343553048469408_);" d="M2893.054,2793.171l-7.218,38.085
				c0,0,17.591,220.739,19.796,308.942c0.346,13.83-3.486,27.416-10.96,39.055l-38.983,60.707l97.196-54.907l2.135-11.694
				l-15.326-21.932l25.271-246.433c1.485-14.477-1.233-29.074-7.828-42.047l-19.177-37.729L2893.054,2793.171z"/>
			
				<linearGradient id="SVGID_00000109716379936620330550000017993071531011377295_" gradientUnits="userSpaceOnUse" x1="843.6321" y1="3310.2659" x2="1381.4928" y2="3286.3125" gradientTransform="matrix(0.9998 0.0189 -0.0189 0.9998 -1574.1307 -24.7392)">
				<stop  offset="0" style="stop-color:#53D8FF"/>
				<stop  offset="1" style="stop-color:#3840F7"/>
			</linearGradient>
			<path style="fill:url(#SVGID_00000109716379936620330550000017993071531011377295_);" d="M2849.191,3248.738l30.676,0.579
				c5.742,0.108,11.207-2.426,14.795-6.91c9.797-12.246,30.068-36.114,39.555-36.568c12.769-0.611,10.282,44.698,10.282,44.698
				l7.148,0.135l10.119-56.169c2.546-14.133-4.238-28.309-16.842-35.191l0,0c0,0-3.322,21.506-19.311,30.744
				c-15.987,9.238-65.153,42.476-65.153,42.476s-5.927-0.961-12.474,0.096C2838.274,3234.194,2839.355,3248.552,2849.191,3248.738z"
				/>
			
				<linearGradient id="SVGID_00000170970566402491409100000000079539088296381107_" gradientUnits="userSpaceOnUse" x1="702.0893" y1="3468.5696" x2="808.9039" y2="2220.1733" gradientTransform="matrix(0.9998 0.0189 -0.0189 0.9998 2445.3633 51.1579)">
				<stop  offset="0" style="stop-color:#F9B776"/>
				<stop  offset="1" style="stop-color:#F47960"/>
			</linearGradient>
			<path style="fill:url(#SVGID_00000170970566402491409100000000079539088296381107_);" d="M3024.371,2813.804
				c0,0,122.865,244.125,142.079,299.696c19.214,55.571,25.441,101.744,25.63,106.109c0.295,6.82,8.646,13.514,32.002,13.956
				c12.053,0.228,18.048-4.492,21.027-9.115c2.541-3.943,2.763-8.934,0.765-13.178c-7.089-15.057-29.582-63.171-37.836-84.958
				c-9.856-26.01-29.897-143.424-41.331-184.331c-11.435-40.908-24.395-85.293-76.765-126.941
				C3089.941,2815.042,3054.137,2778.625,3024.371,2813.804z"/>
			
				<linearGradient id="SVGID_00000173872036259376452020000014841919341964214666_" gradientUnits="userSpaceOnUse" x1="2973.6768" y1="2154.1382" x2="2673.8455" y2="2584.3315">
				<stop  offset="0" style="stop-color:#53D8FF"/>
				<stop  offset="1" style="stop-color:#3840F7"/>
			</linearGradient>
			<path style="fill:url(#SVGID_00000173872036259376452020000014841919341964214666_);" d="M2949.95,2409.354
				c-21.575-112.185,30.85-182.678,49.576-203.659c3.454-3.869,3.111-9.833-0.765-13.279
				c-39.239-34.883-97.454-56.329-124.697-65.025c-9.548-3.048-19.946-1.078-27.766,5.192
				c-25.007,20.052-77.627,67.656-70.078,107.87c5.226,27.848,50.786,156.705,59.357,180.83c0.919,2.587,2.895,4.636,5.455,5.628
				c12.955,5.02,55.272,17.704,103.947-7.234C2948.756,2417.743,2950.752,2413.523,2949.95,2409.354z"/>
			
				<linearGradient id="SVGID_00000178193100615109600320000014030254457851401128_" gradientUnits="userSpaceOnUse" x1="2814.3499" y1="2514.1758" x2="3637.4744" y2="3328.5891">
				<stop  offset="0" style="stop-color:#FDF53F"/>
				<stop  offset="1" style="stop-color:#D93C65"/>
			</linearGradient>
			<path style="fill:url(#SVGID_00000178193100615109600320000014030254457851401128_);" d="M3022.929,2486.547
				c-12.618-40.552-71.578-70.333-71.578-70.333c-61.364,35.296-114.387,8.967-114.387,8.967s-12.864,45.635-5.387,88.411
				c7.476,42.776,54.259,317.664,54.259,317.664c81.552,18.134,208.087-12.765,208.087-12.765
				C3043.526,2724.927,3035.544,2527.099,3022.929,2486.547z"/>
			
				<linearGradient id="SVGID_00000006676002760761243720000014253559092906602628_" gradientUnits="userSpaceOnUse" x1="475.5489" y1="2219.7732" x2="495.6085" y2="2073.0225" gradientTransform="matrix(0.9998 0.0189 -0.0189 0.9998 2445.3633 51.1579)">
				<stop  offset="0" style="stop-color:#F9B776"/>
				<stop  offset="1" style="stop-color:#F47960"/>
			</linearGradient>
			<path style="fill:url(#SVGID_00000006676002760761243720000014253559092906602628_);" d="M2920.437,2031.998l24.459,120.546
				c2.359,10.622-7.248,8.71-17.9,6.492c-17.445-3.631-39.881-10.855-47.165-24.619c-0.741-1.401-1.095-2.975-1.282-4.55
				l-9.909-83.457c-0.787-6.62,2.904-12.963,9.05-15.55l22.341-9.406C2908.632,2017.833,2918.414,2022.887,2920.437,2031.998z"/>
			<path style="fill:#FFFFFF;" d="M3166.05,2286.572c1.615,0,3.432-0.722,4.911-1.643c24.41-15.266,37.884-47.439,32.765-78.243
				c-3.068-18.457-11.893-34.495-24.851-45.168c-9.191-7.566-20.167-12.277-30.623-16.458
				c-17.616-7.042-35.786-13.296-54.009-18.591c-1.489-0.43-2.984-0.861-4.478-1.292c-10.644-3.048-21.652-6.2-31.558-11.391
				c-12.67-6.65-21.814-16.131-25.749-26.701c-2.447-6.571-3.053-13.835-3.637-20.857c-0.72-8.645-1.465-17.586-5.653-25.321
				c-0.168-0.307-0.544-0.416-0.859-0.257c-0.307,0.168-0.421,0.554-0.255,0.861c4.063,7.502,4.795,16.305,5.505,24.821
				c0.591,7.106,1.202,14.459,3.711,21.199c4.043,10.856,13.4,20.58,26.347,27.374c10.023,5.255,21.092,8.427,31.798,11.495
				c1.492,0.426,2.986,0.851,4.476,1.287c18.18,5.285,36.311,11.525,53.89,18.551c10.362,4.142,21.238,8.808,30.286,16.26
				c12.722,10.475,21.389,26.241,24.405,44.396c5.04,30.313-8.197,61.963-32.186,76.956c-1.727,1.084-5.01,2.395-6.336,0.465
				c-0.203-0.292-0.596-0.361-0.881-0.168c-0.287,0.203-0.361,0.594-0.163,0.881C3163.67,2286.142,3164.8,2286.572,3166.05,2286.572
				z"/>
			<path style="fill:#FFFFFF;" d="M3172.69,2257.837c0.2,0,0.396-0.094,0.52-0.272c9.56-13.727,14.677-28.23,14.795-41.942
				c0.141-16.087-7.046-31.184-18.757-39.398c-0.289-0.193-0.683-0.134-0.883,0.153c-0.2,0.287-0.131,0.683,0.156,0.886
				c11.374,7.977,18.356,22.673,18.217,38.349c-0.116,13.455-5.154,27.711-14.568,41.229c-0.2,0.287-0.129,0.683,0.158,0.881
				C3172.438,2257.803,3172.564,2257.837,3172.69,2257.837z"/>
		</g>
		<g>
			
				<linearGradient id="SVGID_00000040576261360831544830000008583091413818347926_" gradientUnits="userSpaceOnUse" x1="-5753.292" y1="3198.0222" x2="-5597.1206" y2="3198.0222" gradientTransform="matrix(1 0 0 1 6481.8125 0)">
				<stop  offset="0" style="stop-color:#53D8FF"/>
				<stop  offset="1" style="stop-color:#3840F7"/>
			</linearGradient>
			<path style="fill:url(#SVGID_00000040576261360831544830000008583091413818347926_);" d="M880.281,3190.469
				c-26.754,2.313-73.187,6.069-109.792,7.68c-22.005,0.969-34.673-1.186-41.969-4.107c0.013,0.823,0.035,1.6,0.068,2.322
				c0.173,3.852,3.303,6.934,7.194,7.151c69.168,3.861,124.177,1.336,143.761,0.144c4.049-0.247,6.462-4.647,4.392-8.099
				C882.899,3193.833,881.644,3192.141,880.281,3190.469z"/>
			
				<linearGradient id="SVGID_00000178922123178709472670000017429781105007531147_" gradientUnits="userSpaceOnUse" x1="-5753.3008" y1="3167.4148" x2="-5601.5308" y2="3167.4148" gradientTransform="matrix(1 0 0 1 6481.8125 0)">
				<stop  offset="0" style="stop-color:#2B3582"/>
				<stop  offset="1" style="stop-color:#150E42"/>
			</linearGradient>
			<path style="fill:url(#SVGID_00000178922123178709472670000017429781105007531147_);" d="M770.489,3198.149
				c36.605-1.611,83.038-5.367,109.792-7.68c-26.304-32.272-109.792-54.023-109.792-54.023h-23.58
				c-16.218,23.378-18.567,45.635-18.389,57.596C735.816,3196.963,748.484,3199.118,770.489,3198.149z"/>
			
				<linearGradient id="SVGID_00000060018958312419955420000002731053950025148803_" gradientUnits="userSpaceOnUse" x1="-5738.8735" y1="3124.6824" x2="-5694.8833" y2="3124.6824" gradientTransform="matrix(1 0 0 1 6481.8125 0)">
				<stop  offset="0" style="stop-color:#F9B776"/>
				<stop  offset="1" style="stop-color:#F47960"/>
			</linearGradient>
			<path style="fill:url(#SVGID_00000060018958312419955420000002731053950025148803_);" d="M742.939,3097.95l2.207,43.666
				c0.239,4.728,3.778,8.702,8.514,9.379c4.712,0.674,11.022,0.76,17.713-1.468c4.116-1.37,7.173-4.839,7.932-9.07l7.625-42.508
				H742.939z"/>
			<g>
				
					<linearGradient id="SVGID_00000102525163250091355780000001409913867240080773_" gradientUnits="userSpaceOnUse" x1="-6032.0366" y1="3236.7478" x2="-5972.1895" y2="3236.7478" gradientTransform="matrix(1 0 0 1 6481.8125 0)">
					<stop  offset="0" style="stop-color:#53D8FF"/>
					<stop  offset="1" style="stop-color:#3840F7"/>
				</linearGradient>
				<path style="fill:url(#SVGID_00000102525163250091355780000001409913867240080773_);" d="M469.264,3240.841
					c-11.603-2.092-16.852-9.881-19.053-18.208c-0.015,0.075-0.029,0.15-0.043,0.224c-1.707,8.785,2.25,17.889,10.161,22.219
					c9.562,5.233,20.017,6.125,28.133,5.693c8.708-0.464,16.701-5.121,21.095-12.575l0.066-0.112
					C500.882,3243.67,488.612,3244.329,469.264,3240.841z"/>
				
					<linearGradient id="SVGID_00000084499327677176715540000018142588466556757911_" gradientUnits="userSpaceOnUse" x1="-6031.6016" y1="3177.1926" x2="-5943.7573" y2="3177.1926" gradientTransform="matrix(1 0 0 1 6481.8125 0)">
					<stop  offset="0" style="stop-color:#2B3582"/>
					<stop  offset="1" style="stop-color:#150E42"/>
				</linearGradient>
				<path style="fill:url(#SVGID_00000084499327677176715540000018142588466556757911_);" d="M523.966,3111.405H504.52
					c-29.62-0.782-48.22,79.96-54.309,111.228c2.201,8.328,7.45,16.117,19.053,18.208c19.349,3.488,31.618,2.83,40.359-2.76
					c16.002-27.215,23.936-67.075,27.749-90.337C541.71,3121.287,523.966,3111.405,523.966,3111.405z"/>
			</g>
			
				<linearGradient id="SVGID_00000169551518643636488480000007862183484759735734_" gradientUnits="userSpaceOnUse" x1="-5985.9414" y1="3101.7432" x2="-5933.3682" y2="3101.7432" gradientTransform="matrix(1 0 0 1 6481.8125 0)">
				<stop  offset="0" style="stop-color:#F9B776"/>
				<stop  offset="1" style="stop-color:#F47960"/>
			</linearGradient>
			<path style="fill:url(#SVGID_00000169551518643636488480000007862183484759735734_);" d="M507.019,3070.874l-10.798,42.947
				c-1.324,5.266,1.196,10.713,6.065,13.21c6.041,3.1,14.545,6.358,22.361,5.415c3.676-0.443,6.729-3.032,7.944-6.494l15.853-45.185
				L507.019,3070.874z"/>
			
				<linearGradient id="SVGID_00000060743732676663198100000000005728457285477001_" gradientUnits="userSpaceOnUse" x1="-5641.625" y1="2666.9753" x2="-6090.4771" y2="3402.2375" gradientTransform="matrix(1 0 0 1 6481.8125 0)">
				<stop  offset="0" style="stop-color:#2B3582"/>
				<stop  offset="1" style="stop-color:#150E42"/>
			</linearGradient>
			<path style="fill:url(#SVGID_00000060743732676663198100000000005728457285477001_);" d="M886.869,2505.235
				c0,0-96.497,603.185-94.907,606.5c0,0-26.651,12.114-55.706,1.544c0,0,8.726-322.445,29.173-446.079
				c0,0-164.687,288.203-216.984,431.809c0,0-27.277-3.253-49.856-18.112c0,0,177.321-518.752,224.629-587.847L886.869,2505.235z"/>
			
				<linearGradient id="SVGID_00000022525433173587861720000013909352545415509156_" gradientUnits="userSpaceOnUse" x1="-5701.8794" y1="2670.2307" x2="-5660.582" y2="2589.2551" gradientTransform="matrix(1 0 0 1 6481.8125 0)">
				<stop  offset="0" style="stop-color:#53D8FF"/>
				<stop  offset="1" style="stop-color:#3840F7"/>
			</linearGradient>
			<path style="fill:url(#SVGID_00000022525433173587861720000013909352545415509156_);" d="M769.281,2664.41
				c-0.579,0-1.167-0.16-1.694-0.491c-1.497-0.938-1.951-2.911-1.015-4.409l36.061-57.598c0.467-0.744,1.22-1.265,2.081-1.438
				l26.539-5.341c1.731-0.327,3.418,0.774,3.767,2.507c0.349,1.733-0.773,3.418-2.505,3.769l-25.189,5.067l-35.33,56.432
				C771.388,2663.876,770.347,2664.41,769.281,2664.41z"/>
			
				<linearGradient id="SVGID_00000179634863884637102740000007804473853605737614_" gradientUnits="userSpaceOnUse" x1="898.1482" y1="2086.3779" x2="570.0247" y2="2640.0857">
				<stop  offset="0" style="stop-color:#53D8FF"/>
				<stop  offset="1" style="stop-color:#3840F7"/>
			</linearGradient>
			<path style="fill:url(#SVGID_00000179634863884637102740000007804473853605737614_);" d="M922.296,2088.051
				c-6.519-2.259-13.319-3.582-20.213-3.986c-37.648-2.208-137.096,12.649-243.708,30.618c-37.599,6.337-43.04,33.431-45.663,55.854
				c-5.93,50.689,25.507,63.415,68.7,69.634c26.008,70.228,38.21,172.699,40.759,218.048c0.84,14.931-1.78,29.833-7.638,43.618
				l-0.639,1.503c-1.254,2.95,0.472,6.34,3.625,7.048c70.265,15.783,143.345,11.495,165.178,9.692
				c3.898-0.322,7.136-3.111,8.03-6.878c34.167-143.969,34.246-242.174,25.88-304.255
				C1049.06,2285.369,993.016,2112.556,922.296,2088.051z"/>
			
				<linearGradient id="SVGID_00000083788995282651185680000004532536135951250308_" gradientUnits="userSpaceOnUse" x1="890.181" y1="2162.1692" x2="916.8091" y2="2162.1692">
				<stop  offset="0" style="stop-color:#53D8FF"/>
				<stop  offset="1" style="stop-color:#3840F7"/>
			</linearGradient>
			<path style="fill:url(#SVGID_00000083788995282651185680000004532536135951250308_);" d="M913.645,2204.792
				c-9.246-62.274-19.878-80.76-22.218-82.302c0.184,0.124,0.779,0.267,1.347-0.127c0.512-0.354,0.658-0.941,0.593-1.225
				l-3.121,0.694c-0.252-1.128,0.302-1.759,0.552-1.979l1.856-0.307c3.174,1.165,14.425,19.244,24.156,84.779L913.645,2204.792z"/>
			
				<linearGradient id="SVGID_00000179641481990754043920000004748253798778881930_" gradientUnits="userSpaceOnUse" x1="-5726.939" y1="2169.4309" x2="-5704.1597" y2="2049.8394" gradientTransform="matrix(1 0 0 1 6481.8125 0)">
				<stop  offset="0" style="stop-color:#F9B776"/>
				<stop  offset="1" style="stop-color:#F47960"/>
			</linearGradient>
			<path style="fill:url(#SVGID_00000179641481990754043920000004748253798778881930_);" d="M743.346,2000.197
				c0,0-7.108,75.157-13.367,97.388c-0.95,3.373,0.516,6.929,3.58,8.68c10.622,6.07,36.099,15.969,70.947-1.11
				c5.646-2.767,9.04-8.652,8.776-14.88l-3.07-72.626L743.346,2000.197z"/>
		</g>
		<g>
			
				<linearGradient id="SVGID_00000170279480045193193390000014451466150046187707_" gradientUnits="userSpaceOnUse" x1="1840.9977" y1="1577.0273" x2="138.7658" y2="3559.5444">
				<stop  offset="0" style="stop-color:#CE1567"/>
				<stop  offset="1" style="stop-color:#7A1DBC"/>
			</linearGradient>
			<path style="fill:url(#SVGID_00000170279480045193193390000014451466150046187707_);" d="M1804.257,2423.633
				c-54.685-12.033-123.023,0.995-185.562,17.728c-70.898,7.477-96.245-108.593-67.411-181.425
				c15.767-39.826,54.184-57.938,88.367-43.454c90.63,38.401,130.074,26.724,162.942,18.91
				c24.655-5.858,35.982-43.885,35.174-74.591l-16.164-614.545c-0.661-25.105,12.588-48.068,32.439-54.48
				c50.616-16.356,105.565,16.186,169.948,42.099c25.751,10.365,54.016,9.43,78.547-4.683
				c94.744-54.513,69.783-243.618-45.008-222.018c-65.018,19.037-136.547,32.088-202.145,18.97
				c-20.172-4.036-35.088-25.182-35.45-50.184l-8.262-570.237c-20.717,2.791-41.113,8.695-60.423,17.867l-866.951,411.746
				c-66.914,31.781-111.557,97.266-116.34,171.19c-81.319,1257.003,724.657,1715.006,988.866,1830.702
				c28.368,12.421,58.828,18.059,89.115,17.031l-6.601-678.549C1839.338,2450.32,1824.686,2428.129,1804.257,2423.633z"/>
			
				<linearGradient id="SVGID_00000103959334380634581860000008506511243926859915_" gradientUnits="userSpaceOnUse" x1="943.5196" y1="231.2014" x2="2474.8413" y2="2336.7666">
				<stop  offset="0" style="stop-color:#CB236D"/>
				<stop  offset="1" style="stop-color:#4C246D"/>
			</linearGradient>
			<path style="fill:url(#SVGID_00000103959334380634581860000008506511243926859915_);" d="M2910.015,1306.525
				c-4.782-73.924-49.424-139.409-116.338-171.19l-866.951-411.746c-36.211-17.198-76.205-23.102-115.053-17.867l8.262,570.237
				c0.362,25.002,15.278,46.148,35.45,50.184c65.599,13.118,137.127,0.067,202.145-18.97
				c114.791-21.6,139.753,167.505,45.008,222.018c-24.531,14.113-52.796,15.048-78.547,4.683
				c-64.384-25.913-119.332-58.455-169.948-42.099c-19.851,6.412-33.1,29.375-32.439,54.48l16.164,614.545
				c0.808,30.706-10.52,68.733-35.174,74.591c-32.868,7.814-72.311,19.491-162.942-18.91c-34.183-14.484-72.6,3.628-88.367,43.454
				c-28.834,72.832-3.487,188.902,67.411,181.425c62.539-16.734,130.877-29.762,185.562-17.728
				c20.429,4.496,35.081,26.688,35.081,52.076l6.601,678.549c25.654-0.871,51.183-6.509,75.214-17.031
				C2185.359,3021.531,2991.336,2563.529,2910.015,1306.525z"/>
			<path style="fill:#FFFFFF;" d="M1576.747,893.302c-3.198,0-6.264-1.803-7.726-4.884c-2.025-4.263-0.21-9.36,4.052-11.383
				l204.846-97.29c4.266-2.033,9.363-0.214,11.386,4.052c2.025,4.263,0.21,9.36-4.052,11.383l-204.846,97.29
				C1579.223,893.035,1577.975,893.302,1576.747,893.302z"/>
			<path style="fill:#FFFFFF;" d="M834.258,1571.767c-4.586,0-8.38-3.638-8.535-8.258c-2.741-81.641-1.302-166.751,4.276-252.968
				c3.315-51.285,34.341-96.903,80.969-119.047l583.208-276.989c4.263-2.033,9.362-0.214,11.386,4.052
				c2.025,4.263,0.21,9.36-4.052,11.383l-583.208,276.989c-41.031,19.487-68.331,59.614-71.248,104.714
				c-5.541,85.664-6.971,170.209-4.249,251.292c0.159,4.717-3.537,8.669-8.253,8.829
				C834.452,1571.767,834.355,1571.767,834.258,1571.767z"/>
		</g>
		<g>
			
				<linearGradient id="SVGID_00000044867987803220745870000007752522413341222794_" gradientUnits="userSpaceOnUse" x1="2364.3804" y1="2035.8292" x2="2070.0339" y2="2458.1528" gradientTransform="matrix(0.9856 0.1689 -0.1689 0.9856 910.2878 -111.2895)">
				<stop  offset="0" style="stop-color:#53D8FF"/>
				<stop  offset="1" style="stop-color:#3840F7"/>
			</linearGradient>
			<path style="fill:url(#SVGID_00000044867987803220745870000007752522413341222794_);" d="M3003.321,2196.637
				c0,0,19.269,87.264-92.982,178.25c-53.62,43.462-163.675,38.711-172.125-16.815l21.383-19.486c0,0,80.424,23.838,105.169-0.219
				c24.745-24.055,53.091-79.32,53.091-79.32S2973.747,2188.964,3003.321,2196.637z"/>
			
				<linearGradient id="SVGID_00000164480226955818212650000002875074989973682332_" gradientUnits="userSpaceOnUse" x1="351.7968" y1="1698.5991" x2="437.7247" y2="1698.5991" gradientTransform="matrix(-0.8054 -0.5927 -0.5927 0.8054 4057.7644 1177.5986)">
				<stop  offset="0" style="stop-color:#F9B776"/>
				<stop  offset="1" style="stop-color:#F47960"/>
			</linearGradient>
			<path style="fill:url(#SVGID_00000164480226955818212650000002875074989973682332_);" d="M2740.025,2364.21
				c0,0,29.132-24.43,33.98-37.136c4.85-12.704,9.182-30.439-11.89-41.294c-21.071-10.854-49.151-19.277-49.151-19.277
				s-8.995,14.578,8.597,20.684l-13.943,0.337c0,0-6.831,11.945,9.599,14.967l-14.972,3.037c0,0-1.456,12.867,11.715,13.619
				C2727.131,2319.898,2712.139,2349.214,2740.025,2364.21z"/>
		</g>
		<g>
			
				<linearGradient id="SVGID_00000170960318624336909130000005244569555136203176_" gradientUnits="userSpaceOnUse" x1="240.0177" y1="2231.1277" x2="415.0445" y2="1919.6388" gradientTransform="matrix(0.9844 -0.1757 0.1757 0.9844 2218.2031 -52.0454)">
				<stop  offset="0" style="stop-color:#F9B776"/>
				<stop  offset="1" style="stop-color:#F47960"/>
			</linearGradient>
			<path style="fill:url(#SVGID_00000170960318624336909130000005244569555136203176_);" d="M2871.316,1921.6
				c0,0-28.816,18.722-41.967,67.537c-13.151,48.816,6.385,66.784,26.77,66.091c20.386-0.694,50.033-6.434,76.282-41.137
				C2958.65,1979.389,2909.043,1898.771,2871.316,1921.6z"/>
			
				<linearGradient id="SVGID_00000018229729422932995130000001019381304143531911_" gradientUnits="userSpaceOnUse" x1="3061.4185" y1="2296.0828" x2="3531.8218" y2="3354.49">
				<stop  offset="0" style="stop-color:#2B3582"/>
				<stop  offset="1" style="stop-color:#150E42"/>
			</linearGradient>
			<path style="fill:url(#SVGID_00000018229729422932995130000001019381304143531911_);" d="M2906.975,1993.822
				c0,0,11.752-70.081-46.801-60.434l-12.03,12.061c0,0-27.953-32.703,4.112-56.42c32.065-23.716,75.806-16.662,99.237,28.058
				c23.429,44.722,31.648,75.991,10.791,103.111c-20.859,27.12-35.712,3.242-35.712,3.242s22.802-28.178,10.462-40.518
				c-9.063-9.063-26.068,12.133-26.068,12.133L2906.975,1993.822z"/>
		</g>
		<g>
			
				<linearGradient id="SVGID_00000139262847684013831870000001410637620591497657_" gradientUnits="userSpaceOnUse" x1="761.7066" y1="2220.6382" x2="233.6323" y2="2748.7124">
				<stop  offset="0" style="stop-color:#53D8FF"/>
				<stop  offset="1" style="stop-color:#3840F7"/>
			</linearGradient>
			<path style="fill:url(#SVGID_00000139262847684013831870000001410637620591497657_);" d="M824.745,2364.859
				c-11.987-1.998-22.718-7.994-29.765-14.825c-33.503-32.48-67.878-113.467-67.878-113.467s-51.088-123.963-103.368-103.855
				c0,0-56.066,97.53,84.702,246.395c12.319,13.028,55.699,40.515,73.756,46.943
				C800.734,2407.282,815.063,2388.199,824.745,2364.859z"/>
			
				<linearGradient id="SVGID_00000161617709707658793570000012377216548079030190_" gradientUnits="userSpaceOnUse" x1="1199.0938" y1="2368.2498" x2="1111.1454" y2="2482.668" gradientTransform="matrix(0.995 -0.1003 0.1003 0.995 -537.4866 159.7308)">
				<stop  offset="0" style="stop-color:#F9B776"/>
				<stop  offset="1" style="stop-color:#F47960"/>
			</linearGradient>
			<path style="fill:url(#SVGID_00000161617709707658793570000012377216548079030190_);" d="M963.094,2374.268
				c-33.566,6.111-91.152,13.893-143.224-10.742c-3.598,16.05-8.689,26.945-39.183,61.982c50.142,11.55,126.999,13.7,203.147-24.145
				L963.094,2374.268z"/>
			
				<linearGradient id="SVGID_00000087370402251981482070000009135885794665295762_" gradientUnits="userSpaceOnUse" x1="5310.2246" y1="4644.731" x2="5384.7803" y2="4644.731" gradientTransform="matrix(0.8046 -0.5938 0.5938 0.8046 -6069.1221 1804.4128)">
				<stop  offset="0" style="stop-color:#F9B776"/>
				<stop  offset="1" style="stop-color:#F47960"/>
			</linearGradient>
			<path style="fill:url(#SVGID_00000087370402251981482070000009135885794665295762_);" d="M994.679,2404.904
				c-4.088,4.746-11.268,5.23-15.904,1.018c-7.817-7.104-19.841-18.835-22.634-26.125c-4.223-11.017-8.003-26.4,10.266-35.844
				c18.269-9.444,42.623-16.785,42.623-16.785s7.822,12.638-7.434,17.957l12.099,0.276c0,0,5.942,10.356-8.31,12.998l12.994,2.617
				c0,0,1.279,11.162-10.148,11.831C998.634,2373.406,1006.294,2391.419,994.679,2404.904z"/>
		</g>
		<g>
			
				<linearGradient id="SVGID_00000000913935228103418590000010972547259034899129_" gradientUnits="userSpaceOnUse" x1="-5708.7813" y1="1983.2872" x2="-5838.751" y2="2082.7339" gradientTransform="matrix(1 0 0 1 6481.8125 0)">
				<stop  offset="0" style="stop-color:#F9B776"/>
				<stop  offset="1" style="stop-color:#F47960"/>
			</linearGradient>
			<path style="fill:url(#SVGID_00000000913935228103418590000010972547259034899129_);" d="M811.745,1904.048
				c0,0,22.735,52.227,24.262,79.638c1.527,27.412,7.434,45.199-24.262,50.719c-31.696,5.52-58.396-10.269-72.861-37.575
				c0,0-22.664-42.075-17.58-59.306C726.388,1920.294,811.745,1904.048,811.745,1904.048z"/>
			
				<linearGradient id="SVGID_00000000215479368306425380000007773197892314722968_" gradientUnits="userSpaceOnUse" x1="-5756.7944" y1="1871.2783" x2="-5635.748" y2="2027.1255" gradientTransform="matrix(1 0 0 1 6481.8125 0)">
				<stop  offset="0" style="stop-color:#2B3582"/>
				<stop  offset="1" style="stop-color:#150E42"/>
			</linearGradient>
			<path style="fill:url(#SVGID_00000000215479368306425380000007773197892314722968_);" d="M749.714,1977.198l1.804-0.795
				c2.297-1.013,3.28-3.747,2.126-5.976c-4.469-8.636-13.182-28.425-1.927-33.041c14.507-5.95,71.968-17.667,84.365-38.056
				c11.915-19.596,1.358-44.891-14.508-52.085c-1.062-0.482-2.314-0.099-2.858,0.931l-1.322,2.502
				c-0.905,1.712-3.435,1.453-3.973-0.408v0c-0.517-1.786-2.893-2.133-3.878-0.556c-3.811,6.1-14.099,15.99-41.613,21.067
				c-39.102,7.216-64.954,23.04-65.598,50.06c-0.041,1.717-1.867,2.671-3.333,1.778c-2.887-1.759-7.507-2.585-13.682,2.607
				c-10.739,9.03-6.344,32.453,17.197,51.72c1.118,0.915,1.109,2.661-0.102,3.45c-4.268,2.778-10.63,9.389,5.855,18.201
				c17.051,9.115,29.784,8.367,34.686,7.558c1.22-0.202,2.006-1.382,1.74-2.59l-5.233-23.748c-0.296-1.344,0.727-2.617,2.103-2.617
				H749.714z"/>
			
				<linearGradient id="SVGID_00000150795801332483768270000009040527042118103190_" gradientUnits="userSpaceOnUse" x1="-5681.4224" y1="1928.949" x2="-5811.3926" y2="2028.3961" gradientTransform="matrix(1 0 0 1 6481.8125 0)">
				<stop  offset="0" style="stop-color:#F9B776"/>
				<stop  offset="1" style="stop-color:#F47960"/>
			</linearGradient>
			<path style="fill:url(#SVGID_00000150795801332483768270000009040527042118103190_);" d="M750.699,1982.209
				c0,0-8.673-33.362-23.631-24.007c-14.957,9.354,7.762,37.38,19.787,38.628L750.699,1982.209z"/>
		</g>
		<g>
			
				<linearGradient id="SVGID_00000016786149418772371750000006292166526358465156_" gradientUnits="userSpaceOnUse" x1="2639.5376" y1="2236.0627" x2="1955.9139" y2="3056.4104">
				<stop  offset="0" style="stop-color:#53D8FF"/>
				<stop  offset="1" style="stop-color:#3840F7"/>
			</linearGradient>
			<path style="fill:url(#SVGID_00000016786149418772371750000006292166526358465156_);" d="M2059.559,3152.256
				c-2.578-0.435-4.853-1.874-6.343-4.022c-21.713-31.307-179.056-275.906,47.53-487.643
				c215.101-201.004,310.958-240.622,327.427-362.236c1.923-14.202,21.296-17.006,27.223-3.957
				c44.296,97.519,110.929,323.903-137.995,463.132c-274.59,153.584-258.198,332.095-246.786,383.04
				C2072.124,3147.302,2066.363,3153.405,2059.559,3152.256L2059.559,3152.256z"/>
			
				<linearGradient id="SVGID_00000086693220150105491890000011734759478496080057_" gradientUnits="userSpaceOnUse" x1="2502.574" y1="2396.8516" x2="2164.1953" y2="3350.4617">
				<stop  offset="0" style="stop-color:#53D8FF"/>
				<stop  offset="1" style="stop-color:#3840F7"/>
			</linearGradient>
			<path style="fill:url(#SVGID_00000086693220150105491890000011734759478496080057_);" d="M2092.825,3157.872
				c-6.103-1.031-10.809-5.913-11.558-12.057c-5.1-41.821-15.919-197.834,99.963-235.407
				c127.57-41.362,225.632,79.351,321.278-9.617c5.033-4.682,13.1-0.204,11.719,6.53c-9.792,47.759-50.099,157.816-214.332,174.967
				c-175.786,18.358-196.124,37.806-193.387,62.826C2107.352,3152.827,2100.476,3159.164,2092.825,3157.872L2092.825,3157.872z"/>
			
				<linearGradient id="SVGID_00000166677940683021932470000017936145378563122308_" gradientUnits="userSpaceOnUse" x1="2259.5854" y1="1635.1772" x2="2184.386" y2="3330.5698">
				<stop  offset="0" style="stop-color:#18459F"/>
				<stop  offset="1" style="stop-color:#2874B5"/>
			</linearGradient>
			<path style="fill:url(#SVGID_00000166677940683021932470000017936145378563122308_);" d="M2417.49,2422.397
				c0,0-0.856,3.391-2.968,9.356c-2.068,6.019-5.59,14.641-10.79,25.285c-5.351,10.552-12.307,23.199-21.74,36.768
				c-9.276,13.673-20.964,28.28-34.966,43.071c-14.02,14.761-30.519,29.545-49.221,43.504c-9.285,7.08-19.35,13.606-29.671,20.188
				c-5.269,3.111-10.508,6.419-15.979,9.427c-2.73,1.515-5.474,3.041-8.228,4.57c-2.712,1.475-5.434,2.954-8.17,4.439
				c-21.338,11.787-42.581,26.023-62.6,42.249c-20.091,16.189-38.979,34.502-56.295,54.169
				c-17.234,19.741-32.686,41.041-45.758,63.265c-13.05,22.231-23.813,45.33-31.841,68.536
				c-8.036,23.199-13.459,46.425-16.575,68.743c-3.166,22.328-3.739,43.735-3.088,63.439c1.507,39.492,9.059,71.941,15.487,94.125
				c3.196,11.126,6.08,19.771,8.138,25.633c2.103,5.848,3.225,8.966,3.225,8.966l0.023,0.067c0.509,1.412-0.225,2.971-1.639,3.481
				c-1.375,0.494-2.889-0.194-3.44-1.529c0,0-1.273-3.104-3.66-8.923c-2.343-5.838-5.651-14.464-9.395-25.619
				c-7.297-22.311-16.076-55.117-18.967-95.651c-1.427-20.225-1.203-42.333,1.484-65.485c2.637-23.153,7.743-47.35,15.729-71.531
				c7.949-24.18,18.618-48.378,31.893-71.58c13.322-23.176,29.109-45.394,46.749-66.009c17.666-20.596,37.226-39.552,57.966-56.379
				c20.732-16.894,42.523-31.618,64.923-44.072c5.456-2.971,10.867-5.915,16.226-8.829c5.314-2.864,10.391-6.019,15.512-8.976
				c10.029-6.252,19.741-12.544,28.825-19.18c18.417-12.961,34.442-27.038,48.632-40.624c6.968-6.92,13.561-13.663,19.422-20.442
				c5.977-6.683,11.419-13.229,16.28-19.581c9.769-12.671,17.52-24.321,23.398-34.218c5.903-9.884,9.979-17.982,12.611-23.546
				c2.639-5.601,3.72-8.602,3.72-8.602c0.466-1.292,1.893-1.963,3.186-1.499c1.212,0.438,1.877,1.719,1.574,2.941L2417.49,2422.397z
				"/>
			
				<linearGradient id="SVGID_00000149353403585562096230000012982971682279173549_" gradientUnits="userSpaceOnUse" x1="2446.9902" y1="2572.4133" x2="1877.899" y2="4079.7341">
				<stop  offset="0" style="stop-color:#18459F"/>
				<stop  offset="1" style="stop-color:#2874B5"/>
			</linearGradient>
			<path style="fill:url(#SVGID_00000149353403585562096230000012982971682279173549_);" d="M2086.937,3129.399
				c0,0,0.195-0.558,0.312-1.599c0.107-1.045,0.023-2.583,0.045-4.596c0.003-4.019,0.105-9.911,0.477-17.395
				c0.808-14.951,2.565-36.384,8.16-61.556c2.827-12.564,6.651-26.06,12.262-39.802c5.594-13.716,13.092-27.739,23.628-40.296
				c10.44-12.528,24.361-23.38,40.717-29.318c16.288-6.155,34.33-7.277,51.592-5.191c17.129,2.457,33.784,5.641,50.361,8.769
				c16.52,3.174,32.724,6.519,48.386,9.744c15.664,3.221,30.79,6.292,45.175,8.722c14.379,2.36,28.046,4.153,40.62,4.273
				c12.574,0.237,23.997-1.278,33.649-4.179c9.625-3.011,17.398-7.334,23.348-11.5c5.988-4.146,10.219-8.085,13.067-10.778
				c2.784-2.781,4.268-4.263,4.268-4.263l0.08-0.08c0.866-0.865,2.27-0.865,3.134,0c0.855,0.858,0.861,2.24,0.025,3.108
				c0,0-1.507,1.559-4.334,4.48c-2.902,2.841-7.222,7.01-13.444,11.476c-6.174,4.486-14.354,9.226-24.548,12.607
				c-10.199,3.298-22.296,5.054-35.311,4.8c-13.037-0.073-26.958-1.853-41.507-4.179c-14.542-2.397-29.738-5.418-45.424-8.575
				c-15.684-3.161-31.868-6.436-48.349-9.533c-16.431-3.068-33.344-6.099-49.979-8.575c-16.501-2.166-33.505-1.255-48.81,4.346
				c-15.37,5.401-28.562,15.415-38.673,27.285c-10.203,11.877-17.598,25.396-23.279,38.694
				c-5.676,13.339-9.637,26.557-12.606,38.905c-5.883,24.751-7.946,45.995-8.961,60.805c-0.479,7.42-0.664,13.259-0.726,17.237
				c-0.015,1.986-0.09,3.512,0.042,4.533c0.14,1.025,0.362,1.535,0.362,1.535c0.449,1.028-0.02,2.223-1.046,2.674
				c-1.028,0.447-2.225-0.023-2.674-1.048c-0.212-0.487-0.219-1.011-0.058-1.475L2086.937,3129.399z"/>
		</g>
		<g>
			<g>
				
					<linearGradient id="SVGID_00000035532271361522960740000001112760231051926922_" gradientUnits="userSpaceOnUse" x1="1524.2383" y1="2252.2375" x2="1707.062" y2="2040.0319">
					<stop  offset="0" style="stop-color:#FDF53F"/>
					<stop  offset="1" style="stop-color:#D93C65"/>
				</linearGradient>
				
					<circle style="fill:url(#SVGID_00000035532271361522960740000001112760231051926922_);" cx="1710.755" cy="2035.745" r="136.302"/>
				
					<linearGradient id="SVGID_00000034047641635848670820000002453858976491103147_" gradientUnits="userSpaceOnUse" x1="1810.3693" y1="1885.2566" x2="1269.7549" y2="2701.9707">
					<stop  offset="0" style="stop-color:#FDF53F"/>
					<stop  offset="1" style="stop-color:#D93C65"/>
				</linearGradient>
				
					<circle style="fill:url(#SVGID_00000034047641635848670820000002453858976491103147_);" cx="1710.755" cy="2035.746" r="131.77"/>
				<path style="fill:#FFFFFF;" d="M1602.092,1990.452c-1.432,0-2.882-0.327-4.248-1.015c-4.655-2.35-6.522-8.028-4.174-12.681
					c22.445-44.466,67.308-72.088,117.084-72.088c7.931,0,15.884,0.714,23.635,2.126c5.129,0.931,8.53,5.848,7.597,10.975
					c-0.935,5.13-5.855,8.559-10.979,7.597c-6.638-1.205-13.452-1.819-20.253-1.819c-42.608,0-81.014,23.646-100.227,61.713
					C1608.865,1988.552,1605.542,1990.452,1602.092,1990.452z"/>
				<circle style="opacity:0.78;fill:#FFFFFF;" cx="1713.626" cy="2038.617" r="111.527"/>
				<g>
					
						<linearGradient id="SVGID_00000064344477271448887400000003656941198052993203_" gradientUnits="userSpaceOnUse" x1="1794.2421" y1="1908.6583" x2="1506.3767" y2="2391.9365">
						<stop  offset="0" style="stop-color:#FDF53F"/>
						<stop  offset="1" style="stop-color:#D93C65"/>
					</linearGradient>
					<path style="fill:url(#SVGID_00000064344477271448887400000003656941198052993203_);" d="M1702.682,2121.527v-12.133
						c-12.649-0.507-25.16-3.492-34.046-7.382c-3.173-1.389-4.79-4.95-3.879-8.291l3.082-11.302
						c1.131-4.146,5.639-6.291,9.603-4.629c8.815,3.696,19.698,6.619,31.434,6.619c12.183,0,21.268-4.13,21.268-12.597
						c0-7.639-7.02-12.182-23.953-16.724c-24.159-6.608-41.505-17.139-41.505-38.408c0-19.204,14.042-33.865,38.408-37.788v-12.135
						c0-3.904,3.165-7.07,7.07-7.07h7.129c3.904,0,7.07,3.165,7.07,7.07v10.895c11.704,0.469,20.224,2.47,26.985,4.846
						c3.464,1.217,5.357,4.949,4.396,8.493l-2.835,10.453c-1.093,4.031-5.401,6.238-9.307,4.761
						c-6.225-2.354-15.027-4.805-26.467-4.805c-14.455,0-18.584,5.988-18.584,11.357c0,6.608,8.672,11.15,27.463,16.933
						c26.844,8.053,37.994,19.203,37.994,39.233c0,18.378-13.628,34.898-40.059,39.028v13.579c0,3.905-3.165,7.07-7.07,7.07h-7.13
						C1705.847,2128.596,1702.682,2125.432,1702.682,2121.527z"/>
				</g>
			</g>
			<g>
				
					<linearGradient id="SVGID_00000153662981992895667840000009793471870248186762_" gradientUnits="userSpaceOnUse" x1="1173.1493" y1="1998.5649" x2="1491.4135" y2="1629.1516">
					<stop  offset="0" style="stop-color:#FDF53F"/>
					<stop  offset="1" style="stop-color:#D93C65"/>
				</linearGradient>
				
					<circle style="fill:url(#SVGID_00000153662981992895667840000009793471870248186762_);" cx="1497.842" cy="1621.69" r="237.278"/>
				
					<linearGradient id="SVGID_00000099621110734162986860000006749434777599578018_" gradientUnits="userSpaceOnUse" x1="1671.2537" y1="1359.7146" x2="730.1374" y2="2781.4729">
					<stop  offset="0" style="stop-color:#FDF53F"/>
					<stop  offset="1" style="stop-color:#D93C65"/>
				</linearGradient>
				
					<circle style="fill:url(#SVGID_00000099621110734162986860000006749434777599578018_);" cx="1497.842" cy="1621.69" r="229.388"/>
				<path style="fill:#FFFFFF;" d="M1308.686,1535.844c-1.432,0-2.882-0.327-4.248-1.015c-4.655-2.35-6.522-8.028-4.172-12.681
					c37.873-75.035,113.581-121.647,197.577-121.647c13.399,0,26.819,1.205,39.891,3.588c5.13,0.931,8.53,5.848,7.597,10.979
					c-0.935,5.127-5.863,8.555-10.979,7.594c-11.96-2.176-24.242-3.281-36.51-3.281c-76.829,0-146.078,42.636-180.722,111.273
					C1315.458,1533.944,1312.135,1535.844,1308.686,1535.844z"/>
				<circle style="opacity:0.78;fill:#FFFFFF;" cx="1502.84" cy="1626.688" r="194.149"/>
				<g>
					
						<linearGradient id="SVGID_00000158748677790103705150000013372674541862237576_" gradientUnits="userSpaceOnUse" x1="1643.1793" y1="1400.4524" x2="1142.0543" y2="2241.7583">
						<stop  offset="0" style="stop-color:#FDF53F"/>
						<stop  offset="1" style="stop-color:#D93C65"/>
					</linearGradient>
					<path style="fill:url(#SVGID_00000158748677790103705150000013372674541862237576_);" d="M1483.788,1771.02v-21.122
						c-22.02-0.882-43.799-6.078-59.268-12.85c-5.524-2.418-8.339-8.617-6.752-14.435l5.366-19.675
						c1.968-7.218,9.818-10.951,16.718-8.058c15.344,6.433,34.292,11.521,54.721,11.521c21.209,0,37.025-7.19,37.025-21.929
						c0-13.299-12.222-21.207-41.698-29.115c-42.057-11.503-72.253-29.837-72.253-66.862c0-33.432,24.445-58.954,66.861-65.782
						v-21.125c0-6.797,5.51-12.307,12.307-12.307h12.41c6.797,0,12.307,5.51,12.307,12.307v18.966
						c20.375,0.816,35.207,4.3,46.977,8.436c6.031,2.119,9.326,8.615,7.653,14.784l-4.935,18.196
						c-1.903,7.017-9.402,10.86-16.202,8.288c-10.837-4.098-26.159-8.365-46.074-8.365c-25.163,0-32.351,10.424-32.351,19.771
						c0,11.503,15.097,19.41,47.808,29.477c46.732,14.019,66.142,33.43,66.142,68.299c0,31.993-23.724,60.75-69.736,67.941v23.638
						c0,6.797-5.51,12.307-12.307,12.307h-12.411C1489.298,1783.328,1483.788,1777.818,1483.788,1771.02z"/>
				</g>
			</g>
			<g>
				
					<linearGradient id="SVGID_00000128445024215620557410000003054299994237471635_" gradientUnits="userSpaceOnUse" x1="1754.676" y1="2605.3516" x2="2082.166" y2="2225.2297">
					<stop  offset="0" style="stop-color:#FDF53F"/>
					<stop  offset="1" style="stop-color:#D93C65"/>
				</linearGradient>
				
					<circle style="fill:url(#SVGID_00000128445024215620557410000003054299994237471635_);" cx="2088.781" cy="2217.551" r="244.156"/>
				
					<linearGradient id="SVGID_00000087409543607210173680000013634199182342439582_" gradientUnits="userSpaceOnUse" x1="2267.2192" y1="1947.9823" x2="1298.8225" y2="3410.9536">
					<stop  offset="0" style="stop-color:#FDF53F"/>
					<stop  offset="1" style="stop-color:#D93C65"/>
				</linearGradient>
				
					<circle style="fill:url(#SVGID_00000087409543607210173680000013634199182342439582_);" cx="2088.781" cy="2217.551" r="236.037"/>
				<path style="fill:#FFFFFF;" d="M1894.14,2128.946c-1.432,0-2.882-0.327-4.248-1.015c-4.655-2.35-6.522-8.028-4.172-12.681
					c38.926-77.122,116.735-125.029,203.062-125.029c13.763,0,27.557,1.242,41.001,3.692c5.129,0.935,8.53,5.848,7.596,10.979
					c-0.936,5.13-5.855,8.545-10.98,7.594c-12.329-2.247-24.985-3.385-37.616-3.385c-79.159,0-150.509,43.935-186.208,114.654
					C1900.913,2127.046,1897.59,2128.946,1894.14,2128.946z"/>
				
					<ellipse transform="matrix(0.7071 -0.7071 0.7071 0.7071 -958.3862 2131.6399)" style="opacity:0.78;fill:#FFFFFF;" cx="2093.924" cy="2222.695" rx="199.777" ry="199.777"/>
				<g>
					
						<linearGradient id="SVGID_00000103262191113002109710000006231861609706560697_" gradientUnits="userSpaceOnUse" x1="2238.3311" y1="1989.9009" x2="1722.6796" y2="2855.5945">
						<stop  offset="0" style="stop-color:#FDF53F"/>
						<stop  offset="1" style="stop-color:#D93C65"/>
					</linearGradient>
					<path style="fill:url(#SVGID_00000103262191113002109710000006231861609706560697_);" d="M2074.319,2371.211v-21.735
						c-22.658-0.907-45.068-6.255-60.986-13.222c-5.684-2.488-8.581-8.867-6.949-14.853l5.522-20.245
						c2.025-7.427,10.103-11.269,17.202-8.292c15.79,6.619,35.286,11.856,56.308,11.856c21.823,0,38.098-7.399,38.098-22.565
						c0-13.685-12.575-21.821-42.907-29.958c-43.276-11.836-74.348-30.702-74.348-68.8c0-34.401,25.154-60.663,68.8-67.689v-21.737
						c0-6.994,5.67-12.664,12.664-12.664h12.77c6.995,0,12.664,5.67,12.664,12.664v19.516c20.966,0.839,36.228,4.425,48.339,8.68
						c6.205,2.18,9.596,8.865,7.875,15.213l-5.078,18.724c-1.958,7.22-9.674,11.175-16.672,8.529
						c-11.151-4.217-26.917-8.608-47.41-8.608c-25.893,0-33.289,10.726-33.289,20.344c0,11.836,15.535,19.973,49.194,30.331
						c48.085,14.426,68.059,34.399,68.059,70.279c0,32.92-24.412,62.511-71.757,69.91v24.324c0,6.994-5.67,12.664-12.664,12.664
						h-12.772C2079.99,2383.875,2074.319,2378.205,2074.319,2371.211z"/>
				</g>
			</g>
			<g>
				
					<linearGradient id="SVGID_00000087375310713770305450000002494115437552128662_" gradientUnits="userSpaceOnUse" x1="1777.3683" y1="2035.2322" x2="2017.3177" y2="1756.7197">
					<stop  offset="0" style="stop-color:#FDF53F"/>
					<stop  offset="1" style="stop-color:#D93C65"/>
				</linearGradient>
				
					<circle style="fill:url(#SVGID_00000087375310713770305450000002494115437552128662_);" cx="2022.164" cy="1751.094" r="178.891"/>
				
					<linearGradient id="SVGID_00000179647623909035318480000001801257424400603523_" gradientUnits="userSpaceOnUse" x1="2152.9048" y1="1553.583" x2="1443.3679" y2="2625.4907">
					<stop  offset="0" style="stop-color:#FDF53F"/>
					<stop  offset="1" style="stop-color:#D93C65"/>
				</linearGradient>
				
					<circle style="fill:url(#SVGID_00000179647623909035318480000001801257424400603523_);" cx="2022.164" cy="1751.094" r="172.943"/>
				<path style="fill:#FFFFFF;" d="M1879.551,1688.698c-1.432,0-2.882-0.327-4.248-1.015c-4.653-2.35-6.522-8.028-4.174-12.681
					c28.952-57.36,86.825-92.994,151.035-92.994c10.244,0,20.504,0.921,30.493,2.744c5.129,0.935,8.53,5.848,7.595,10.979
					c-0.936,5.127-5.842,8.565-10.98,7.594c-8.874-1.616-17.995-2.437-27.108-2.437c-57.042,0-108.457,31.658-134.178,82.619
					C1886.324,1686.799,1883.001,1688.698,1879.551,1688.698z"/>
				
					<ellipse transform="matrix(0.7071 -0.7071 0.7071 0.7071 -647.4932 1946.538)" style="opacity:0.78;fill:#FFFFFF;" cx="2025.933" cy="1754.862" rx="146.375" ry="146.375"/>
				<g>
					
						<linearGradient id="SVGID_00000048484104948110038560000004495698570196426941_" gradientUnits="userSpaceOnUse" x1="2131.7388" y1="1584.2963" x2="1753.9248" y2="2218.5835">
						<stop  offset="0" style="stop-color:#FDF53F"/>
						<stop  offset="1" style="stop-color:#D93C65"/>
					</linearGradient>
					<path style="fill:url(#SVGID_00000048484104948110038560000004495698570196426941_);" d="M2011.568,1863.679v-15.925
						c-16.601-0.665-33.021-4.582-44.684-9.688c-4.165-1.823-6.287-6.497-5.091-10.883l4.045-14.834
						c1.484-5.441,7.402-8.256,12.604-6.076c11.569,4.85,25.854,8.687,41.257,8.687c15.989,0,27.914-5.421,27.914-16.533
						c0-10.026-9.214-15.989-31.438-21.95c-31.708-8.673-54.474-22.495-54.474-50.409c0-25.205,18.43-44.447,50.409-49.595v-15.927
						c0-5.125,4.154-9.279,9.279-9.279h9.356c5.125,0,9.279,4.154,9.279,9.279v14.299c15.362,0.615,26.543,3.242,35.417,6.36
						c4.546,1.597,7.031,6.495,5.77,11.146l-3.72,13.719c-1.435,5.29-7.089,8.188-12.216,6.249
						c-8.171-3.09-19.722-6.307-34.737-6.307c-18.971,0-24.391,7.858-24.391,14.906c0,8.672,11.382,14.634,36.045,22.223
						c35.232,10.569,49.866,25.204,49.866,51.492c0,24.121-17.886,45.802-52.576,51.223v17.822c0,5.124-4.154,9.279-9.279,9.279
						h-9.357C2015.723,1872.958,2011.568,1868.804,2011.568,1863.679z"/>
				</g>
			</g>
		</g>
	</g>
</g>
</svg>
